<?xml version="1.0" encoding="UTF-8" standalone="no"?><!DOCTYPE svg PUBLIC "-//W3C//DTD SVG 1.1//EN" "http://www.w3.org/Graphics/SVG/1.1/DTD/svg11.dtd"><svg width="100%" height="100%" viewBox="0 0 300 345" version="1.1" xmlns="http://www.w3.org/2000/svg" xmlns:xlink="http://www.w3.org/1999/xlink" xml:space="preserve" xmlns:serif="http://www.serif.com/" style="fill-rule:evenodd;clip-rule:evenodd;stroke-linejoin:round;stroke-miterlimit:2;"><g id="Gift"><g><path d="M47.196,264.482c-0.686,-1.147 -0.954,-2.465 -0.708,-3.995c0.15,-0.929 0.792,-1.279 1.596,-1.902c0.931,-0.72 3.247,-1.53 4.346,-1.477c1.305,0.062 2.402,0.48 3.356,1.139l-2.039,5.503l-6.551,0.732Z" style="fill:#9d1011;"/><path d="M28.241,266.588l-7.817,0.885c-5.918,-1.159 -9.469,-5.827 -9.099,-13.19c0.791,-4.54 3.017,-7.028 6.908,-7.352c1.984,-0.165 3.092,0.903 6.025,1.103c3.048,0.207 5.659,-0.351 8.914,0.31c2.806,0.569 5.238,2.606 6.75,6.192c1.84,4.367 7.864,7.489 15.457,6.525l0.27,2.424l-11.581,1.311l-0.042,-0.378c-4.83,-0.158 -8.986,-2.142 -12.197,-5.927c-1.742,-2.055 -3.523,-3.929 -5.326,-5.703l-3.43,5.757l5.168,8.043Z" style="fill:#b91213;"/><path d="M55.594,262.989l0.055,0.496l-35.225,3.988c-5.918,-1.159 -9.469,-5.827 -9.099,-13.19c0.791,-4.54 3.017,-7.028 6.908,-7.352c1.984,-0.165 3.092,0.903 6.025,1.103c3.048,0.207 5.659,-0.351 8.914,0.31c2.806,0.569 5.238,2.606 6.75,6.192c1.84,4.367 7.864,7.489 15.457,6.525l0.094,0.846l-2.94,0.226c-5.254,0.044 -7.636,-0.876 -11.042,-3.558c-2.559,-2.015 -3.25,-5.175 -4.997,-7.04c-2.622,-2.8 -7.974,-0.666 -8.461,2.692c-0.807,5.558 2.241,8.3 6.323,9.115c6.766,1.351 13.873,1.102 21.238,-0.353Z" style="fill:#ec2023;"/><path d="M60.813,262.96l-0.374,-2.412c5.225,-1.446 10.058,-3.797 11.556,-9.232c1.016,-3.688 -0.547,-7.438 -0.194,-10.839c0.275,-2.654 2.572,-4.372 5.539,-3.962c1.883,0.261 2.63,2.332 4.444,3.313c2.056,1.112 5.404,0.551 7.567,2.292c2.551,2.052 2.79,6.628 1.525,9.909c-2.014,5.223 -7.881,7.488 -13.865,9.122l-16.198,1.809Z" style="fill:#b91213;"/><path d="M60.647,261.884l-0.208,-1.336c5.225,-1.446 10.058,-3.797 11.556,-9.232c1.016,-3.688 -0.547,-7.438 -0.194,-10.839c0.275,-2.654 2.572,-4.372 5.539,-3.962c1.883,0.261 2.63,2.332 4.444,3.313c2.056,1.112 5.404,0.551 7.567,2.292c2.551,2.052 2.79,6.628 1.525,9.909c-2.014,5.223 -7.881,7.488 -13.865,9.122l-16.198,1.809l-0.063,-0.41l4.35,-0.486c6.899,-0.338 15.484,-1.56 20.91,-5.44c4.383,-3.134 5.12,-7.795 4.421,-10.447c-1.126,-4.274 -5.834,-3.848 -6.873,-0.747c-0.969,2.896 -1.562,6.389 -3.84,9.099c-5.273,6.273 -12.174,6.81 -19.071,7.355Z" style="fill:#ec2023;"/><path d="M49.517,264.222c-1.231,-0.485 0.367,-2.098 1.511,-3.302c1.281,-1.347 2.124,-2.685 3.402,-4.14c1.026,-1.169 1.901,-1.14 3.444,-0.96c0.934,0.109 2.063,0.106 3.239,0.474c1.315,0.411 1.937,1.451 2.1,2.899c0.127,1.127 -0.454,2.705 -1.241,4.317l-12.455,0.712Z" style="fill:#d01517;"/></g><g><path d="M96.594,269.499l6.016,53.85c0.186,1.661 -1.012,3.16 -2.673,3.346l-76.972,8.599c-1.662,0.185 -3.161,-1.013 -3.346,-2.674l-6.016,-53.849c-0.186,-1.662 1.012,-3.161 2.673,-3.346l76.972,-8.599c1.661,-0.186 3.161,1.012 3.346,2.673Z" style="fill:#006c38;"/><path d="M14.669,288.316l10.999,-13.941l13.983,-1.562l-23.4,29.661l-1.582,-14.158Zm14.978,46.231l52.444,-66.475l11.157,-1.246c0.787,-0.088 1.537,0.134 2.129,0.569l-51.747,65.59l-13.983,1.562Zm52.506,-5.866l18.441,-23.375l1.582,14.158l-6.039,7.655l-13.984,1.562Z" style="fill:#840007;"/><path d="M17.879,317.053l36.171,-45.848l13.984,-1.563l-48.573,61.568l-1.582,-14.157Zm38.201,14.541l41.565,-52.686l1.582,14.158l-29.164,36.966l-13.983,1.562Z" style="fill:#c8c4bf;"/><path d="M96.594,269.499l6.016,53.85c0.186,1.661 -1.012,3.16 -2.673,3.346l-59.543,6.651c-1.661,0.186 -3.16,-1.012 -3.346,-2.673l-6.016,-53.85c-0.185,-1.661 1.013,-3.16 2.674,-3.346l59.542,-6.651c1.661,-0.186 3.161,1.012 3.346,2.673Z" style="fill:#008143;"/><path d="M33.706,273.477l5.945,-0.664l-7.942,10.067l-0.677,-6.057c-0.185,-1.661 1.013,-3.16 2.674,-3.346Zm48.385,-5.405l11.157,-1.246c0.787,-0.088 1.537,0.134 2.129,0.569l-51.747,65.59l-3.236,0.361c-1.661,0.186 -3.16,-1.012 -3.346,-2.673l-0.539,-4.824l45.582,-57.777Zm18.503,37.234l1.582,14.158l-6.039,7.655l-13.984,1.562l18.441,-23.375Z" style="fill:#cd1e27;"/><path d="M54.05,271.205l13.984,-1.563l-33.115,41.975l-1.581,-14.158l20.712,-26.254Zm43.595,7.703l1.582,14.158l-29.164,36.966l-13.983,1.562l41.565,-52.686Z" style="fill:#e3dcd2;"/><path d="M70.691,260.93l7.617,68.181l-15.765,1.761l-7.617,-68.181l15.765,-1.761Z" style="fill:#d01517;"/><path d="M72.368,260.743l7.617,68.181l-15.765,1.761l-7.617,-68.181l15.765,-1.761Z" style="fill:#ec2023;"/><path d="M14.862,290.044l-1.259,-11.273c-0.186,-1.662 1.012,-3.161 2.673,-3.346l76.972,-8.599c1.661,-0.186 3.161,1.012 3.346,2.673l1.26,11.274l-82.992,9.271Z" style="fill-opacity:0.25;"/><path d="M98.651,260.514l1.194,10.695c0.165,1.476 -0.899,2.808 -2.375,2.973l-83.814,9.363c-1.476,0.165 -2.808,-0.899 -2.973,-2.375l-1.195,-10.695c-0.165,-1.476 0.9,-2.808 2.375,-2.973l83.815,-9.363c1.476,-0.165 2.808,0.899 2.973,2.375Z" style="fill:#00321a;"/><path d="M98.651,260.514l1.194,10.695c0.165,1.476 -0.899,2.808 -2.375,2.973l-66.284,7.405c-1.476,0.165 -2.808,-0.899 -2.973,-2.375l-1.195,-10.696c-0.164,-1.476 0.9,-2.808 2.376,-2.972l66.284,-7.405c1.476,-0.165 2.808,0.899 2.973,2.375Z" style="fill:#004825;"/><path d="M72.368,260.743l1.792,16.043l-15.765,1.761l-1.792,-16.043l15.765,-1.761Z" style="fill:#d01517;"/><path d="M74.044,260.555l1.793,16.044l-15.766,1.761l-1.792,-16.043l15.765,-1.762Z" style="fill:#ec2023;"/></g></g></svg>