<?xml version="1.0" encoding="UTF-8" standalone="no"?>
<!-- Created with Inkscape (http://www.inkscape.org/) -->

<svg
   width="300"
   height="345"
   viewBox="0 0 79.374998 91.28125"
   version="1.1"
   id="svg1"
   inkscape:version="1.4.2 (ebf0e940, 2025-05-08)"
   sodipodi:docname="classPassNew.svg"
   inkscape:export-filename="2025/vikingEyebrows.svg"
   inkscape:export-xdpi="96"
   inkscape:export-ydpi="96"
   xml:space="preserve"
   xmlns:inkscape="http://www.inkscape.org/namespaces/inkscape"
   xmlns:sodipodi="http://sodipodi.sourceforge.net/DTD/sodipodi-0.dtd"
   xmlns="http://www.w3.org/2000/svg"
   xmlns:svg="http://www.w3.org/2000/svg"><sodipodi:namedview
     id="namedview1"
     pagecolor="#505050"
     bordercolor="#ffffff"
     borderopacity="1"
     inkscape:showpageshadow="0"
     inkscape:pageopacity="0"
     inkscape:pagecheckerboard="1"
     inkscape:deskcolor="#505050"
     inkscape:document-units="px"
     inkscape:zoom="0.41646295"
     inkscape:cx="-331.36201"
     inkscape:cy="737.16042"
     inkscape:window-width="1448"
     inkscape:window-height="707"
     inkscape:window-x="22"
     inkscape:window-y="44"
     inkscape:window-maximized="0"
     inkscape:current-layer="layer1"><inkscape:page
       x="0"
       y="0"
       width="79.375"
       height="91.28125"
       id="page2"
       margin="0"
       bleed="0" /></sodipodi:namedview><defs
     id="defs1"><inkscape:path-effect
       effect="fillet_chamfer"
       id="path-effect64"
       is_visible="true"
       lpeversion="1"
       nodesatellites_param="F,0,0,1,0,0,0,1 @ F,0,0,1,0,0,0,1 @ F,0,0,1,0,0,0,1 @ F,0,0,1,0,0,0,1 @ F,0,0,1,0,0,0,1 @ F,0,0,1,0,0,0,1 @ F,0,0,1,0,0,0,1 @ F,0,0,1,0,0,0,1 @ F,0,0,1,0,0,0,1 @ F,0,0,1,0,0,0,1 @ F,0,0,1,0,0,0,1 @ F,0,0,1,0,2.2995101,0,1 @ F,0,0,1,0,3.3983557,0,1 @ F,0,0,1,0,0,0,1 @ F,0,0,1,0,0,0,1 @ F,0,0,1,0,0,0,1 @ F,0,0,1,0,0,0,1 @ F,0,0,1,0,0,0,1 @ F,0,0,1,0,0,0,1 @ F,0,0,1,0,0,0,1 @ F,0,0,1,0,0,0,1 @ F,0,0,1,0,0,0,1 @ F,0,0,1,0,0,0,1 @ F,0,0,1,0,0,0,1 @ F,0,0,1,0,0,0,1 @ F,0,0,1,0,0,0,1 @ F,0,0,1,0,0,0,1 @ F,0,0,1,0,0,0,1 @ F,0,0,1,0,0,0,1 @ F,0,0,1,0,0,0,1 @ F,0,0,1,0,0,0,1 @ F,0,0,1,0,0,0,1 @ F,0,0,1,0,0,0,1"
       radius="0"
       unit="px"
       method="auto"
       mode="F"
       chamfer_steps="1"
       flexible="false"
       use_knot_distance="true"
       apply_no_radius="true"
       apply_with_radius="true"
       only_selected="false"
       hide_knots="false" /></defs><g
     inkscape:label="Layer 1"
     inkscape:groupmode="layer"
     id="layer1"><g
       id="g729"
       style="display:inline"><path
         id="path717"
         style="opacity:1;fill:#c6623f;fill-opacity:1;stroke:none;stroke-width:1.94707;stroke-linecap:butt;stroke-linejoin:round;stroke-dasharray:none;stroke-opacity:1;paint-order:stroke fill markers"
         d="M 0.25683187,58.326155 C 0.18245276,59.219475 0.09337583,60.111265 0,61.002477 v 15.814539 c 0.07781717,0.339765 0.16325578,0.680127 0.25683187,1.021643 0.50849,3.328492 2.58729823,5.811603 6.75049223,7.172172 C 10.535987,81.7139 14.144511,78.683161 18.50378,78.154918 l 6.10402,3.892786 c 0.418241,0.266578 0.946423,-0.118008 0.821138,-0.597896 L 23.9882,75.940067 c 2.667108,3.316947 4.814081,7.248637 10.441739,7.066752 v 2.109432 c -3.869495,0.410579 -5.637569,1.71706 -6.880263,3.518675 -0.720489,1.044539 -0.122024,2.097894 1.143517,2.203836 7.470266,0.625355 14.339386,0.534035 20.891314,0.06457 1.872003,-0.134136 2.815523,-1.742348 1.562709,-3.132405 -1.217807,-1.351215 -2.982587,-2.313055 -6.202156,-2.654672 v -2.109432 c 5.627658,0.181885 7.774631,-3.749805 10.441739,-7.066752 l -1.440738,5.509741 c -0.125285,0.479888 0.402897,0.864474 0.821138,0.597896 l 6.10402,-3.892786 c 4.359269,0.528243 7.967793,3.558982 11.496456,6.855913 4.163199,-1.360569 6.242002,-3.84368 6.750492,-7.172172 0.09358,-0.341514 0.179015,-0.681881 0.256832,-1.021643 V 61.002477 c -0.09338,-0.891207 -0.182453,-1.783007 -0.256832,-2.676322 -1.70799,4.367055 -2.394748,10.116193 -8.649084,8.332308 l -0.10542,4.8519 c -4.315859,2.898855 -9.281483,1.897348 -14.132987,1.582332 0,0 -4.264125,-3.462417 -6.673495,-4.74493 -3.0253,-1.610374 -9.869682,-3.787365 -9.869682,-3.787365 0,0 -8.091048,2.500627 -11.601875,4.529439 -1.835258,1.060545 -4.941301,4.002856 -4.941301,4.002856 -4.851504,0.315016 -9.817128,1.316523 -14.1329869,-1.582332 l -0.1054199,-4.8519 C 2.6515802,68.442348 1.9648219,62.69321 0.25683187,58.326155 Z"
         sodipodi:nodetypes="cccccccccccccccccccccccccccscscccc"
         inkscape:path-effect="#path-effect64"
         inkscape:original-d="M 0.25683187,58.326155 C 0.18245276,59.219475 0.09337583,60.111265 0,61.002477 v 15.814539 c 0.07781717,0.339765 0.16325578,0.680127 0.25683187,1.021643 0.50849,3.328492 2.58729823,5.811603 6.75049223,7.172172 C 10.535987,81.7139 14.144511,78.683161 18.50378,78.154918 l 6.10402,3.892786 c 0.418241,0.266578 0.946423,-0.118008 0.821138,-0.597896 L 23.9882,75.940067 c 2.667108,3.316947 4.814081,7.248637 10.441739,7.066752 v 2.109432 c -5.183708,0.550025 -6.596164,2.707855 -8.026383,5.509987 9.683821,0.986957 18.343589,0.753058 26.567887,0 -1.430219,-2.802132 -2.842675,-4.959962 -8.026383,-5.509987 v -2.109432 c 5.627658,0.181885 7.774631,-3.749805 10.441739,-7.066752 l -1.440738,5.509741 c -0.125285,0.479888 0.402897,0.864474 0.821138,0.597896 l 6.10402,-3.892786 c 4.359269,0.528243 7.967793,3.558982 11.496456,6.855913 4.163199,-1.360569 6.242002,-3.84368 6.750492,-7.172172 0.09358,-0.341514 0.179015,-0.681881 0.256832,-1.021643 V 61.002477 c -0.09338,-0.891207 -0.182453,-1.783007 -0.256832,-2.676322 -1.70799,4.367055 -2.394748,10.116193 -8.649084,8.332308 l -0.10542,4.8519 c -4.315859,2.898855 -9.281483,1.897348 -14.132987,1.582332 0,0 -4.264125,-3.462417 -6.673495,-4.74493 -3.0253,-1.610374 -9.869682,-3.787365 -9.869682,-3.787365 0,0 -8.091048,2.500627 -11.601875,4.529439 -1.835258,1.060545 -4.941301,4.002856 -4.941301,4.002856 -4.851504,0.315016 -9.817128,1.316523 -14.1329869,-1.582332 l -0.1054199,-4.8519 C 2.6515802,68.442348 1.9648219,62.69321 0.25683187,58.326155 Z" /><path
         id="path722"
         style="opacity:1;fill:#b65d3d;fill-opacity:1;stroke:none;stroke-width:0.200819;stroke-linecap:butt;stroke-linejoin:round;stroke-dasharray:none;stroke-opacity:1;paint-order:stroke fill markers"
         d="m 0,65.511763 v 11.305253 c 0.07781717,0.339765 0.16325578,0.680127 0.25683187,1.021643 0.50849,3.328492 2.58729823,5.811603 6.75049223,7.172172 C 10.535987,81.7139 15.68618,81.429259 20.045449,80.901016 l 6.10402,3.892786 c 0.418241,0.266578 0.946423,-0.118008 0.821138,-0.597896 l -0.332664,-3.438124 c 2.667108,3.316947 2.164338,2.430922 7.791996,2.249037 v 2.109432 c -0.381076,0.04043 -0.741835,0.09311 -1.083654,0.157096 l 2.689758,-0.06615 -0.112138,-4.93975 -3.143477,-4.939233 c -0.384321,2.97589 -2.243502,2.580187 -4.714958,0.785481 l -1.683618,-2.357478 -4.153752,1.010274 0.449068,3.704683 -5.613094,-3.367753 c -1.802788,3.834566 -4.67828,4.452326 -7.9710891,3.816821 L 6.0621622,74.766495 2.5822713,78.134765 C 0.58642239,73.563159 2.3341344,70.863327 3.8168212,68.030989 Z"
         sodipodi:nodetypes="cccccccccccccccccccccccc" /><path
         id="path725"
         style="opacity:1;fill:#b65d3d;fill-opacity:1;stroke-width:0.180055;stroke-linejoin:round;paint-order:stroke fill markers"
         d="m 34.886242,82.071475 c -0.544005,0.023 -1.003643,0.418719 -1.227315,0.93431 0.249646,0.0091 0.50639,0.0096 0.771012,10e-4 v 2.109432 c -0.31647,0.03358 -0.618734,0.07564 -0.907955,0.125573 0.08568,0.791278 0.788479,1.253204 1.60197,1.445907 3.116144,0.738161 6.140593,0.558294 9.127091,0 0.821921,-0.153649 1.517963,-0.649894 1.602486,-1.445907 -0.289265,-0.04994 -0.591947,-0.09199 -0.908471,-0.125573 v -2.109432 c 0.264418,0.0085 0.52103,0.0081 0.770495,-10e-4 -0.255584,-0.585136 -0.818131,-1.011911 -1.46451,-0.920357 -2.981989,0.422371 -6.015066,0.487879 -9.127091,0 -0.08071,-0.01265 -0.159997,-0.01724 -0.237712,-0.01395 z" /><path
         id="path723"
         d="m 0,65.511763 v 11.305253 c 0.07781717,0.339765 0.16325578,0.680127 0.25683187,1.021643 0.50849,3.328492 2.58729823,5.811603 6.75049223,7.172172 3.5286629,-3.296931 7.9080209,-3.62975 12.2672899,-4.157993 l 6.10402,3.892786 c 0.418241,0.266578 0.946423,-0.118008 0.821138,-0.597896 l -0.284486,-3.389946 c 2.667108,3.316947 2.886995,2.430922 8.514653,2.249037 v 2.109432 c -0.381076,0.04043 -0.741835,0.09311 -1.083654,0.157096 l 2.689758,-0.06615 -0.112138,-4.93975 -3.143477,-4.939233 c -0.384321,2.97589 -2.243502,2.580187 -4.714958,0.785481 l -1.683618,-2.357478 -4.153752,1.010274 0.449068,3.704683 -5.613094,-3.367753 c -1.802788,3.834566 -4.67828,4.452326 -7.9710891,3.816821 L 6.0621622,74.766495 2.5822713,78.134765 C 0.58642239,73.563159 2.3341344,70.863327 3.8168212,68.030989 Z"
         style="opacity:1;fill:#b65d3d;fill-opacity:1;stroke:none;stroke-width:0.200819;stroke-linecap:butt;stroke-linejoin:round;stroke-dasharray:none;stroke-opacity:1;paint-order:stroke fill markers"
         transform="matrix(-1,0,0,1,79.374999,0)"
         sodipodi:nodetypes="cccccccccccccccccccccccc" /><path
         id="path728"
         style="opacity:1;fill:#b65d3d;fill-opacity:1;stroke:none;stroke-width:0.186484;stroke-linecap:butt;stroke-linejoin:round;stroke-dasharray:none;stroke-opacity:1;paint-order:stroke fill markers"
         d="m 44.94506,84.522725 -9.259383,0.979486 c 0,0 -3.19174,0.222892 -4.342888,1.057915 -1.146879,0.831926 -1.994504,3.236706 -2.211234,3.899673 h 0.188102 c 0.715698,-0.500486 2.853552,-1.961656 4.194576,-2.515559 1.329372,-0.549089 4.248319,-1.05836 4.248319,-1.05836 l 1.793689,2.279376 1.982308,-1.709422 h 3.870565 l 3.21014,1.302565 C 48.235466,87.66449 48.056858,86.469365 47.31184,85.553458 46.622266,85.365366 45.83991,85.225361 44.94506,85.143482 Z" /><path
         id="rect723"
         style="opacity:1;fill:#afaba9;stroke-width:0.180055;stroke-linejoin:round;paint-order:stroke fill markers"
         d="m 35.124009,81.451972 c 3.112025,0.487879 6.144994,0.422371 9.126983,0 0.883637,-0.125159 1.610932,0.718476 1.610932,1.610932 v 1.38074 c 0,0.892456 -0.733672,1.446938 -1.610932,1.610932 -2.986498,0.558294 -6.010839,0.738161 -9.126983,0 -0.868424,-0.205715 -1.610932,-0.718476 -1.610932,-1.610932 v -1.38074 c 0,-0.892456 0.729244,-1.749156 1.610932,-1.610932 z"
         sodipodi:nodetypes="sssssssss" /><path
         id="rect724"
         style="opacity:1;fill:#8c8e9b;fill-opacity:0.509434;stroke-width:0.200819;stroke-linejoin:round;paint-order:stroke fill markers"
         d="m 45.8618,83.572159 c -4.05887,0.900756 -8.170661,0.97739 -12.348601,0.03256 v 0.838708 c 0,0.892456 0.742331,1.405557 1.610755,1.611272 3.116144,0.738161 6.140593,0.558294 9.127091,0 0.87726,-0.163994 1.610755,-0.718816 1.610755,-1.611272 z" /><path
         id="rect725"
         style="opacity:1;fill:#e0dfe2;fill-opacity:1;stroke-width:0.181545;stroke-linejoin:round;paint-order:stroke fill markers"
         d="m 42.247033,81.679251 c -1.713408,0.144402 -3.445433,0.158542 -5.201233,0.0062 0.890581,1.54762 0.945066,3.121572 0.08372,4.72426 1.678818,0.200088 3.333951,0.161641 4.973857,-0.02739 -1.168952,-1.51544 -1.233392,-3.078118 0.14366,-4.703072 z" /><path
         style="opacity:1;fill:#c6623f;fill-opacity:1;stroke:none;stroke-width:0.200819;stroke-linecap:butt;stroke-linejoin:round;stroke-dasharray:none;stroke-opacity:1;paint-order:stroke fill markers"
         d="m 36.261281,80.368013 c -0.163241,1.180281 -0.879061,1.62379 -1.387304,2.344068 1.018366,-0.256632 2.109902,0.0721 3.013801,-1.100277 z"
         id="path726"
         sodipodi:nodetypes="cccc" /><path
         style="opacity:1;fill:#c6623f;fill-opacity:1;stroke:none;stroke-width:0.200819;stroke-linecap:butt;stroke-linejoin:round;stroke-dasharray:none;stroke-opacity:1;paint-order:stroke fill markers"
         d="m 42.752303,81.260132 c -0.525539,0.714821 -0.491388,1.219759 -0.369084,1.691639 -0.594926,-0.174001 -1.272079,-0.265774 -1.47634,-0.830441 -0.457503,0.07465 -0.493561,0.465395 -0.645898,0.768924 -0.210145,-0.48186 -0.543728,-0.96372 -0.369084,-1.44558 z"
         id="path727"
         sodipodi:nodetypes="cccccc" /><g
         id="g727"
         transform="translate(0,1.1555493)"><path
           id="path720"
           style="baseline-shift:baseline;display:inline;overflow:visible;vector-effect:none;fill:#af5132;fill-opacity:1;stroke-linejoin:round;paint-order:stroke fill markers;enable-background:accumulate;stop-color:#000000"
           d="m 39.687499,64.5604 c 0,0 -8.091048,2.500627 -11.601875,4.529439 -1.29345,0.747449 -3.217928,2.42935 -4.241602,3.357418 2.646292,0.08705 5.40371,-0.25902 8.384501,-1.502751 l -2.665987,2.560567 c -0.111286,0.106893 -0.190186,0.208157 -0.236161,0.306441 -0.04597,0.09829 -0.05974,0.203399 -0.01757,0.293006 0.04218,0.08961 0.131145,0.144447 0.236161,0.172082 0.105016,0.02763 0.233171,0.03225 0.38654,0.0155 2.82093,-0.308149 5.669897,-0.5586 8.300785,-1.496033 0.519946,-0.185267 1.386909,-0.196739 1.904277,-0.01188 2.597143,0.927947 5.192079,1.400366 7.781437,1.793172 0.153685,0.02331 0.286069,0.02178 0.396358,-0.0062 0.110289,-0.02794 0.2029,-0.08666 0.254248,-0.1757 0.05135,-0.08904 0.0561,-0.196826 0.02532,-0.306441 -0.03077,-0.109615 -0.09513,-0.225995 -0.191719,-0.347783 l -1.792655,-2.257743 c 3.400472,1.486236 6.500434,1.768416 9.486242,1.500684 C 55.35276,72.38753 51.712725,69.495169 49.55718,68.347768 46.531881,66.737391 39.6875,64.5604 39.687499,64.5604 Z" /><path
           id="rect716"
           style="opacity:1;fill:#c6623f;fill-opacity:1;stroke-width:1.94707;stroke-linejoin:round;paint-order:stroke fill markers"
           d="m 39.687758,57.355155 c -4.937786,0 -11.058373,4.758006 -16.654798,7.62124 -5.596424,2.863234 -10.669115,3.831807 -10.669115,3.831807 6.531797,0.881041 12.629286,3.50017 20.221504,0.139527 l -2.953308,2.836519 c -0.421541,0.404902 -0.292688,0.677387 0.288354,0.613916 2.82234,-0.308303 5.663997,-0.558213 8.278565,-1.489832 0.550167,-0.196035 1.422104,-0.209572 1.972489,-0.01292 2.587368,0.924454 5.174948,1.396534 7.762317,1.789038 0.57779,0.08765 0.752329,-0.215904 0.389123,-0.67386 L 46.337998,69.5079 c 7.733289,3.537636 13.868474,0.722733 20.673156,-0.699699 0,0 -5.664904,-0.495217 -11.261328,-3.358451 -5.596425,-2.863235 -11.124281,-8.094596 -16.062068,-8.094595 z" /><path
           id="path721"
           style="opacity:1;fill:#b65d3d;fill-opacity:1;stroke:none;stroke-width:0.200819;stroke-linecap:butt;stroke-linejoin:round;stroke-dasharray:none;stroke-opacity:1;paint-order:stroke fill markers"
           d="m 33.219677,64.969677 c -4.670974,3.687727 -9.724544,4.219035 -15.093652,2.147156 -1.32e-4,4.8e-5 -3.84e-4,-4.9e-5 -5.17e-4,0 -3.341278,1.2294 -5.761405,1.691369 -5.761405,1.691369 6.531797,0.881041 12.62877,3.50017 20.220988,0.139527 l -2.953308,2.836519 c -0.421541,0.404902 -0.292688,0.677387 0.288354,0.613916 2.82234,-0.308303 5.664513,-0.558213 8.279081,-1.489832 0.550167,-0.196035 1.421588,-0.209571 1.971973,-0.01292 2.587368,0.924454 5.174948,1.396534 7.762317,1.789038 0.57779,0.08765 0.752329,-0.215904 0.389123,-0.67386 L 46.338256,69.5079 c 7.733289,3.537636 13.867958,0.722733 20.67264,-0.699699 0,0 -1.868621,-0.163428 -4.519621,-0.844909 l -0.0016,-5.17e-4 c -5.902138,1.850128 -11.804275,1.85807 -17.706413,-2.894914 -0.608551,2.117906 -0.61931,4.195959 1.372569,6.140503 0,0 -4.666769,-2.099895 -7.154128,-2.12266 -2.203011,-0.02016 -6.369637,1.763716 -6.369637,1.763716 1.87643,-2.251118 1.07259,-3.040058 0.587561,-5.879744 z"
           sodipodi:nodetypes="ccccccsssscccccccacc" /></g></g></g></svg>
