<?xml version="1.0" encoding="UTF-8" standalone="no"?>
<!-- Created with Inkscape (http://www.inkscape.org/) -->

<svg
   width="300"
   height="345"
   viewBox="0 0 79.374998 91.28125"
   version="1.1"
   id="svg1"
   inkscape:version="1.4.2 (ebf0e940, 2025-05-08)"
   sodipodi:docname="classPassNew.svg"
   inkscape:export-filename="2025/redSweaterClothing.svg"
   inkscape:export-xdpi="96"
   inkscape:export-ydpi="96"
   xmlns:inkscape="http://www.inkscape.org/namespaces/inkscape"
   xmlns:sodipodi="http://sodipodi.sourceforge.net/DTD/sodipodi-0.dtd"
   xmlns="http://www.w3.org/2000/svg"
   xmlns:svg="http://www.w3.org/2000/svg">
  <sodipodi:namedview
     id="namedview1"
     pagecolor="#505050"
     bordercolor="#ffffff"
     borderopacity="1"
     inkscape:showpageshadow="0"
     inkscape:pageopacity="0"
     inkscape:pagecheckerboard="1"
     inkscape:deskcolor="#505050"
     inkscape:document-units="px"
     inkscape:zoom="0.39"
     inkscape:cx="-252.5641"
     inkscape:cy="-23.076923"
     inkscape:window-width="1448"
     inkscape:window-height="707"
     inkscape:window-x="43"
     inkscape:window-y="72"
     inkscape:window-maximized="0"
     inkscape:current-layer="layer1">
    <inkscape:page
       x="0"
       y="0"
       width="79.375"
       height="91.28125"
       id="page2"
       margin="0"
       bleed="0" />
  </sodipodi:namedview>
  <defs
     id="defs1">
    <inkscape:path-effect
       effect="fillet_chamfer"
       id="path-effect438"
       is_visible="true"
       lpeversion="1"
       nodesatellites_param="F,0,0,1,0,5,0,1 @ F,0,0,1,0,5,0,1 @ F,0,0,1,0,5,0,1"
       radius="5"
       unit="px"
       method="auto"
       mode="F"
       chamfer_steps="1"
       flexible="false"
       use_knot_distance="true"
       apply_no_radius="true"
       apply_with_radius="true"
       only_selected="false"
       hide_knots="false" />
    <inkscape:path-effect
       effect="fillet_chamfer"
       id="path-effect469"
       is_visible="true"
       lpeversion="1"
       nodesatellites_param="F,0,0,1,0,2,0,1 @ F,0,0,1,0,2,0,1 @ F,0,0,1,0,4.2615227,0,1 @ F,0,0,1,0,2,0,1 @ F,0,0,1,0,2,0,1 @ F,0,0,1,0,2,0,1"
       radius="2"
       unit="px"
       method="auto"
       mode="F"
       chamfer_steps="1"
       flexible="false"
       use_knot_distance="true"
       apply_no_radius="true"
       apply_with_radius="true"
       only_selected="false"
       hide_knots="false" />
  </defs>
  <g
     inkscape:label="Layer 1"
     inkscape:groupmode="layer"
     id="layer1">
    <g
       id="g16-8"
       style="clip-rule:evenodd;fill-rule:evenodd;stroke-linejoin:round;stroke-miterlimit:2"
       transform="matrix(0.26458333,0,0,0.26458333,637.96568,148.40871)">
      <path
         id="path466"
         style="clip-rule:nonzero;fill-rule:nonzero;stroke-linecap:round;stroke-linejoin:round;stroke-miterlimit:2;stroke-dashoffset:20.1635;paint-order:stroke fill markers"
         d="m -579.07933,-21.896456 a 4.50045,4.50045 0 0 0 -2.30664,1.19141 l -40.05078,38.81054 C -658.08288,1.6729836 -684.62843,-3.9465264 -728.0598,-5.8339564 a 4.50045,4.50045 0 0 0 -0.19531,0.0742 4.50045,4.50045 0 0 0 -0.19531,-0.0742 c -43.43137,1.88743 -69.97693,7.50694 -106.62305,23.9394504 l -40.05078,-38.81054 a 4.50045,4.50045 0 0 0 -3.13086,-1.09961 V 6.7461236 c 0,6.3820404 1.63654,12.3646804 4.5,17.5683604 v -17.5683604 -13.5918 l 34.58203,33.5097704 a 4.50045,4.50045 0 0 0 5.00195,0.85937 C -798.13462,11.044314 -773.7328,5.5235936 -732.75511,3.4258136 V 43.126984 h 9 V 3.4258136 c 40.97769,2.09778 65.3795,7.6185004 101.41602,24.0976504 a 4.50045,4.50045 0 0 0 5.00195,-0.85937 l 34.58203,-33.5097704 v 13.5918 17.5683604 c 2.86345,-5.20368 4.5,-11.18632 4.5,-17.5683604 V -21.806616 a 4.50045,4.50045 0 0 0 -0.82422,-0.0898 z"
         transform="translate(-1532.9538,-301.14921)" />
      <path
         id="path418"
         style="clip-rule:evenodd;opacity:1;fill:#6bbde5;fill-opacity:1;fill-rule:evenodd;stroke:none;stroke-width:3.9;stroke-linecap:round;stroke-linejoin:round;stroke-miterlimit:2;stroke-dasharray:none;stroke-dashoffset:20.1635;stroke-opacity:1;paint-order:stroke fill markers"
         d="m -878.25511,-17.472626 v 0.32617 23.8925796 42.1074204 c -4.8e-4,20.09279 16.28807,36.38133 36.38086,36.38086 h 113.61914 V -1.3373064 c -44.27512,1.92409996 -69.97662,7.4786 -107.78711,24.7689804 z m 300,0 v 0.32617 23.8925796 42.1074204 c 4.7e-4,20.09279 -16.28807,36.38133 -36.38086,36.38086 H -728.25511 V -1.3373064 c 44.27512,1.92409996 69.97662,7.4786 107.78711,24.7689804 z"
         sodipodi:nodetypes="ccccccccc"
         transform="translate(-1532.9538,-301.14921)" />
      <path
         id="path465"
         style="clip-rule:evenodd;opacity:1;fill:#3f76be;fill-opacity:1;fill-rule:evenodd;stroke:none;stroke-width:7.639;stroke-linecap:round;stroke-linejoin:round;stroke-miterlimit:2;stroke-dasharray:none;stroke-dashoffset:20.1635;stroke-opacity:1;paint-order:stroke fill markers"
         d="m -793.00902,7.4062836 c -13.72067,3.7128404 -27.33366,8.8461304 -43.0332,16.0253904 l -0.49024,-0.47657 -5.66796,2.99414 -8.50391,40.13477 58.50391,10.88477 33.67383,-22.10938 c -26.79267,-11.5046 -37.42323,-26.00113 -34.48243,-47.4531204 z"
         sodipodi:nodetypes="cccccccc"
         transform="translate(-1532.9538,-301.14921)" />
      <path
         id="path437"
         style="clip-rule:evenodd;opacity:1;fill:#abf2fd;fill-opacity:1;fill-rule:evenodd;stroke:none;stroke-width:7.639;stroke-linecap:round;stroke-linejoin:round;stroke-miterlimit:2;stroke-dasharray:none;stroke-dashoffset:20.1635;stroke-opacity:1;paint-order:stroke fill markers"
         d="m -712.86058,-0.45309644 c -4.73532,2.83049004 -7.79261,7.79256004 -8.19141,13.29492044 l -1.93945,28.44531 15.78906,3.6836 c 9.38122,-17.07517 18.05797,-34.8548 41.10157,-38.2675804 -14.45526,-3.71606 -29.20125,-5.87700004 -46.75977,-7.15625004 z"
         sodipodi:nodetypes="cccccc"
         transform="translate(-1532.9538,-301.14921)" />
      <path
         id="path436"
         style="clip-rule:evenodd;opacity:1;fill:#3f76be;fill-opacity:1;fill-rule:evenodd;stroke:none;stroke-width:7.639;stroke-linecap:round;stroke-linejoin:round;stroke-miterlimit:2;stroke-dasharray:none;stroke-dashoffset:20.1635;stroke-opacity:1;paint-order:stroke fill markers"
         d="m -660.38988,8.2637036 c 13.12506,50.3436304 -39.08702,38.1339704 -66.28711,49.3398404 l 36.60352,27.63086 h 72.20508 l 21.70312,-5.07617 c 3.72276,-2.20151 7.0334,-5.02053 9.75,-8.35742 l -32.42773,-49.94336 -1.625,1.57422 c -14.51264,-6.6365 -27.2421,-11.53106 -39.92188,-15.1679704 z"
         sodipodi:nodetypes="ccccccccc"
         transform="translate(-1532.9538,-301.14921)" />
      <path
         id="path424"
         style="clip-rule:evenodd;opacity:1;fill:none;fill-opacity:1;fill-rule:evenodd;stroke:#000000;stroke-width:12.907;stroke-linecap:round;stroke-linejoin:round;stroke-miterlimit:2;stroke-dasharray:none;stroke-dashoffset:20.1635;stroke-opacity:1;paint-order:stroke fill markers"
         d="m -779.21053,48.388224 c 0,0 23.02611,-12.54383 51.61747,-12.54383 28.59136,0 51.61746,12.54383 51.61746,12.54383 2.69063,0.65386 4.95223,2.69366 4.95223,6.03961 v 10.68548 c 0,3.34596 -2.2087,6.03962 -4.95223,6.03962 h -103.23493 c -2.74353,0 -4.95223,-2.69366 -4.95223,-6.03962 v -10.68548 c 0,-3.34595 2.2087,-6.03961 4.95223,-6.03961 z"
         sodipodi:nodetypes="ssssssssss"
         transform="translate(-1532.9538,-301.14921)" />
      <path
         id="rect422"
         style="clip-rule:evenodd;opacity:1;fill:#4c4e5b;fill-opacity:1;fill-rule:evenodd;stroke-width:4.30694;stroke-linecap:round;stroke-linejoin:round;stroke-miterlimit:2;stroke-dashoffset:20.1635;paint-order:stroke fill markers"
         d="m -779.21053,48.388224 c 0,0 23.02611,-12.54383 51.61747,-12.54383 28.59136,0 51.61746,12.54383 51.61746,12.54383 2.69063,0.65386 4.95223,2.69366 4.95223,6.03961 v 10.68548 c 0,3.34596 -2.2087,6.03962 -4.95223,6.03962 h -103.23493 c -2.74353,0 -4.95223,-2.69366 -4.95223,-6.03962 v -10.68548 c 0,-3.34595 2.2087,-6.03961 4.95223,-6.03961 z"
         sodipodi:nodetypes="ssssssssss"
         transform="translate(-1532.9538,-301.14921)" />
      <path
         id="path439"
         style="clip-rule:evenodd;opacity:1;fill:#646778;fill-opacity:1;fill-rule:evenodd;stroke:none;stroke-width:7.639;stroke-linecap:round;stroke-linejoin:round;stroke-miterlimit:2;stroke-dasharray:none;stroke-dashoffset:20.1635;stroke-opacity:1;paint-order:stroke fill markers"
         d="m -701.95628,46.658234 -8.11524,0.83984 -5.03711,12.8711 -13.71289,-0.5586 -1.11914,-11.19336 -5.03711,-1.11914 -7.27539,12.3125 -9.23437,0.5586 -3.07813,-9.79297 -8.39648,1.39843 -2.79688,9.79493 -8.11718,-4.75782 -6.43555,0.2793 -3.85156,3.85156 v 3.97071 c 0,3.34596 2.20959,6.03906 4.95312,6.03906 h 103.23438 c 2.74353,0 4.95312,-2.6931 4.95312,-6.03906 v -10.57227 l -9.10742,-0.60742 -0.55859,6.43555 -4.75782,1.40039 -3.35742,-12.59375 -8.67578,0.28125 1.40039,8.11523 -4.75781,0.55859 z"
         transform="translate(-1532.9538,-301.14921)" />
      <rect
         style="clip-rule:evenodd;opacity:1;fill:#000000;fill-opacity:1;fill-rule:evenodd;stroke:none;stroke-width:3.68054;stroke-linecap:round;stroke-linejoin:round;stroke-miterlimit:2;stroke-dasharray:none;stroke-dashoffset:20.1635;stroke-opacity:1;paint-order:stroke fill markers"
         id="rect440"
         width="240.76619"
         height="17.778517"
         x="-853.49396"
         y="65.086182"
         transform="translate(-1532.9538,-301.14921)" />
      <path
         id="rect424"
         style="clip-rule:evenodd;opacity:1;fill:#000000;fill-opacity:1;fill-rule:evenodd;stroke:none;stroke-width:8.49643;stroke-linecap:round;stroke-linejoin:round;stroke-miterlimit:2;stroke-dasharray:none;stroke-dashoffset:20.1635;stroke-opacity:1;paint-order:stroke fill markers"
         d="m -717.75512,36.330104 v 34.82227 h 6.88672 v -33.92383 c -2.23534,-0.35765 -4.52323,-0.67057 -6.88672,-0.89844 z m -21,0.14453 c -2.36665,0.2577 -4.65563,0.59484 -6.88671,0.97852 v 33.69922 h 6.88671 z m 48.88672,6.0625 v 28.61524 h 6.88672 v -26 c -1.94794,-0.81119 -4.25965,-1.70226 -6.88672,-2.61524 z m -76.77343,0.46485 c -2.6856,0.96662 -4.9982,1.89411 -6.88672,2.70898 v 25.44141 h 6.88672 z"
         transform="translate(-1532.9538,-301.14921)" />
      <path
         id="rect423"
         style="clip-rule:evenodd;opacity:1;fill:#efefef;fill-opacity:1;fill-rule:evenodd;stroke:none;stroke-width:3.56806;stroke-linecap:round;stroke-linejoin:round;stroke-miterlimit:2;stroke-dasharray:none;stroke-dashoffset:20.1635;stroke-opacity:1;paint-order:stroke fill markers"
         d="m -853.49339,68.429714 v 14.87696 c 3.07729,1.03773 6.3369,1.65706 9.7207,1.83203 h 231.03516 c 0.003,-1.7e-4 0.007,1.7e-4 0.01,0 v -16.70899 z"
         transform="translate(-1532.9538,-301.14921)" />
      <path
         id="rect443"
         style="clip-rule:evenodd;opacity:1;fill:#9999a0;fill-opacity:1;fill-rule:evenodd;stroke:none;stroke-width:6.59391;stroke-linecap:round;stroke-linejoin:round;stroke-miterlimit:2;stroke-dasharray:none;stroke-dashoffset:20.1635;stroke-opacity:1;paint-order:stroke fill markers"
         d="m -769.07444,68.429714 c -2.55171,1.97709 -4.19531,5.06435 -4.19531,8.55664 0,3.26226 1.43498,6.17074 3.70311,8.15235 h 82.62305 c 2.26813,-1.98161 3.70312,-4.89009 3.70312,-8.15235 0,-3.49229 -1.6436,-6.57955 -4.19531,-8.55664 z"
         transform="translate(-1532.9538,-301.14921)" />
      <path
         style="clip-rule:evenodd;opacity:1;fill:#abf2fd;fill-opacity:1;fill-rule:evenodd;stroke:none;stroke-width:7.639;stroke-linecap:round;stroke-linejoin:round;stroke-miterlimit:2;stroke-dasharray:none;stroke-dashoffset:20.1635;stroke-opacity:1;paint-order:stroke fill markers"
         d="m 155.36951,260.31688 -4.88819,-0.44438 c -2.75009,-0.25001 -6.90015,0.87722 -8.32637,3.22338 -2.62204,4.31329 -2.15196,9.46989 -1.98855,14.54285 0.0888,2.75833 1.00449,3.02884 2.37824,0.63339 3.1842,-5.55242 6.82615,-10.92175 13.41755,-15.1113 2.32874,-1.48016 2.15741,-2.59393 -0.59268,-2.84394 z"
         id="path438"
         sodipodi:nodetypes="cccc"
         inkscape:path-effect="#path-effect438"
         inkscape:original-d="m 160.34898,260.76956 -14.84713,-1.34974 c -7.88462,6.07896 -4.71825,15.17183 -5.39895,23.2155 4.55779,-8.16494 8.70451,-16.49432 20.24608,-21.86576 z"
         transform="rotate(-6.7379086,-5821.3075,20434.956)" />
      <g
         id="g465"
         transform="translate(-2411.2089,-560.91481)"
         style="clip-rule:evenodd;fill-rule:evenodd;stroke-linejoin:round;stroke-miterlimit:2">
        <path
           id="path432"
           style="fill:#abf2fd;fill-opacity:1;stroke:none;stroke-width:7.639;stroke-linecap:round;stroke-linejoin:round;stroke-dasharray:none;stroke-dashoffset:20.1635;stroke-opacity:1;paint-order:stroke fill markers"
           d="m 300,242.29297 -24.23633,23.48437 3.70117,9.67774 L 300,252.91602 v -10.29688 z" />
        <path
           id="path433"
           style="fill:#3f76be;fill-opacity:1;stroke:none;stroke-width:7.639;stroke-linecap:round;stroke-linejoin:round;stroke-dasharray:none;stroke-dashoffset:20.1635;stroke-opacity:1;paint-order:stroke fill markers"
           d="m 300,262.125 c -4.8594,10.03569 -11.84827,20.47657 -18.53125,16.13672 L 280.26562,301.51758 300,302.50391 v -35.99219 z" />
        <path
           id="path425"
           style="clip-rule:nonzero;fill-rule:nonzero;stroke-linecap:round;stroke-dashoffset:20.1635;paint-order:stroke fill markers"
           d="m 299.77778,277.59939 c -11.9177,3.43685 -26.28289,11.79805 -32.23568,23.57031 -7.44719,14.72759 -6.88074,26.01206 -5.76695,38.56751 C 261.8941,341.07814 262.7207,345 262.7207,345 h 0.89844 c 1.43982,3e-5 2.85384,-0.10492 4.25,-0.26758 -0.34978,-2.01839 -0.75566,-4.41645 -0.8457,-5.50781 -0.97779,-11.85169 0.5575,-24.48417 6.41797,-34.66602 5.38881,-9.36241 15.93954,-15.38083 26.55859,-18.69726 z"
           sodipodi:nodetypes="csscscsscc" />
        <path
           id="path421"
           style="fill:#6bbde5;fill-opacity:1;stroke:none;stroke-width:7.61025;stroke-linecap:round;stroke-linejoin:round;stroke-dasharray:none;stroke-dashoffset:20.1635;stroke-opacity:1;paint-order:stroke fill markers"
           d="m 300,282.01367 c -12.47157,2.99168 -22.04236,9.67514 -28.73047,21.29492 -6.20938,10.78805 -7.74928,23.91422 -6.74219,36.1211 0.15203,1.84267 0.51023,3.66817 1,5.47461 19.20027,-0.9979 34.47311,-16.83641 34.47266,-36.28516 z" />
        <path
           id="path429"
           style="fill:#abf2fd;fill-opacity:1;stroke:none;stroke-width:7.639;stroke-linecap:round;stroke-linejoin:round;stroke-dasharray:none;stroke-dashoffset:20.1635;stroke-opacity:1;paint-order:stroke fill markers"
           d="m 288.96289,286.04297 c -7.23902,3.72754 -13.13648,9.3486 -17.69336,17.26562 -0.66677,1.15843 -1.26836,2.34833 -1.83008,3.55664 0.53154,5.70608 5.66307,7.19513 17.11524,2.89063 L 294,300.58008 c 2.0271,-10.55968 -0.5107,-13.56397 -5.03711,-14.53711 z" />
        <path
           id="path420"
           style="fill:#2f3135;fill-opacity:1;stroke:none;stroke-width:3.9;stroke-linecap:round;stroke-linejoin:round;stroke-dasharray:none;stroke-dashoffset:20.1635;stroke-opacity:1;paint-order:stroke fill markers"
           d="m 300,294.65625 a 33.33231,35.998894 0 0 0 -26.10352,35.04883 33.33231,35.998894 0 0 0 2.3379,13.00195 C 290.09933,337.57254 300.00037,324.26967 300,308.61914 Z" />
        <path
           id="path431"
           style="fill:#3d4247;fill-opacity:1;stroke:none;stroke-width:7.639;stroke-linecap:round;stroke-linejoin:round;stroke-dasharray:none;stroke-dashoffset:20.1635;stroke-opacity:1;paint-order:stroke fill markers"
           d="m 286.32227,305.13672 c -1.13035,0.0248 -2.45654,0.26662 -4.00196,0.74805 a 33.33231,35.998894 0 0 0 -7.22851,14.54492 l 10.07812,5.94922 8.13672,-8.3125 c -0.30029,-6.54092 -0.6104,-13.06983 -6.98437,-12.92969 z" />
        <path
           id="path430"
           style="fill:#1c1e20;fill-opacity:1;stroke:none;stroke-width:7.639;stroke-linecap:round;stroke-linejoin:round;stroke-dasharray:none;stroke-dashoffset:20.1635;stroke-opacity:1;paint-order:stroke fill markers"
           d="m 276.77148,315.17188 a 33.33231,35.998894 0 0 0 -2.875,14.5332 33.33231,35.998894 0 0 0 2.3379,13.00195 c 4.82331,-1.78618 9.16536,-4.56384 12.77929,-8.08203 l 2.90821,-17.59766 c -10e-6,0 -8.26688,4.75343 -11.94727,2.94336 -1.45212,-0.71417 -2.49086,-2.73822 -3.20313,-4.79882 z" />
        <path
           id="path423"
           style="fill:#b7b7b8;fill-opacity:1;stroke:none;stroke-width:2.56317;stroke-linecap:round;stroke-linejoin:round;stroke-dasharray:none;stroke-dashoffset:20.1635;stroke-opacity:1;paint-order:stroke fill markers"
           d="m 300,308.58203 a 21.906739,23.659278 0 0 0 -14.77344,22.29688 21.906739,23.659278 0 0 0 0.84375,6.31836 C 294.54632,330.54748 300.00027,320.23115 300,308.61914 Z" />
        <path
           id="path426"
           style="clip-rule:nonzero;fill-rule:nonzero;stroke-linecap:round;stroke-dashoffset:20.1635;paint-order:stroke fill markers"
           d="m 300,292.52344 c -15.58901,4.3773 -28.01111,19.83577 -28.05273,37.17773 -2e-5,0.005 -2e-5,0.0104 0,0.0156 0.0247,3.91584 1.02956,9.38955 2.26367,13.70703 1.29659,-0.39411 2.56217,-0.86007 3.79297,-1.39063 -1.11786,-3.97413 -2.13715,-9.12743 -2.15821,-12.33398 0.0408,-15.04796 10.87218,-28.68094 24.1543,-32.98047 z"
           sodipodi:nodetypes="cscccccc" />
        <circle
           style="fill:none;fill-opacity:1;stroke:#000000;stroke-width:7.639;stroke-linecap:round;stroke-linejoin:round;stroke-dasharray:none;stroke-dashoffset:20.1635;stroke-opacity:1;paint-order:stroke fill markers"
           id="circle428"
           cx="246.84958"
           cy="275.42014"
           r="37.332188" />
        <path
           id="path427"
           style="clip-rule:nonzero;fill-rule:nonzero;stroke-linecap:round;stroke-dashoffset:20.1635;paint-order:stroke fill markers"
           d="m 299.88477,307.30469 a 1.2817131,1.2817131 0 0 0 -0.33204,0.0762 c -9.35442,3.47924 -15.57721,12.92282 -15.60742,23.49414 a 1.2817131,1.2817131 0 0 0 0,0.0137 c 0.0108,1.47552 0.58604,3.19132 1.1836,4.96094 0.19289,0.57124 0.37898,1.09984 0.56836,1.64062 0.72348,-0.55261 1.42611,-1.13227 2.10546,-1.73632 -0.0813,-0.24406 -0.15266,-0.45372 -0.24414,-0.72461 -0.57743,-1.71004 -1.0451,-3.49276 -1.05078,-4.15625 0,-5.9e-4 10e-6,-0.003 0,-0.004 0.0321,-9.37515 5.4571,-17.6504 13.46485,-20.87305 0.017,-0.45674 0.0273,-0.91599 0.0273,-1.37695 v -1.30859 a 1.2817131,1.2817131 0 0 0 -0.11523,-0.006 z" />
        <circle
           style="fill:#6bbde5;fill-opacity:1;stroke:none;stroke-width:3.53889;stroke-linecap:round;stroke-linejoin:round;stroke-dasharray:none;stroke-dashoffset:20.1635;stroke-opacity:1;paint-order:stroke fill markers"
           id="path419"
           cx="246.84958"
           cy="275.42014"
           r="37.332188" />
        <path
           id="path435"
           style="fill:#abf2fd;fill-opacity:1;stroke:none;stroke-width:7.639;stroke-linecap:round;stroke-linejoin:round;stroke-dasharray:none;stroke-dashoffset:20.1635;stroke-opacity:1;paint-order:stroke fill markers"
           d="m 246.84961,238.08789 c -10.40119,0.0254 -20.32023,4.38884 -27.36719,12.03906 -6.68329,6.60886 1.74635,2.17999 2.6154,1.63171 4.38453,-2.76618 7.6156,-5.38236 15.01937,-5.16491 -13.01478,7.08444 -6.57369,9.5467 1.68554,11.58203 l 26.74415,6.10742 c 1.72515,-6.00069 0.95584,-14.80765 11.14257,-11.28906 -7.05044,-9.38314 -18.10306,-14.90439 -29.83984,-14.90625 z"
           sodipodi:nodetypes="ccsccccc" />
        <path
           id="path434"
           style="fill:#3f76be;fill-opacity:1;stroke:none;stroke-width:7.639;stroke-linecap:round;stroke-linejoin:round;stroke-dasharray:none;stroke-dashoffset:20.1635;stroke-opacity:1;paint-order:stroke fill markers"
           d="m 268.46875,274.62305 -47.34961,4.73437 c -4.88195,1.39414 -17.62694,-7.35758 -6.58008,14.58985 6.62987,11.59777 18.95158,18.76898 32.31055,18.80468 14.21185,-0.0257 27.1764,-8.11855 33.44141,-20.875 10.15412,-22.45634 -7.77252,-11.63178 -11.82227,-17.2539 z"
           sodipodi:nodetypes="cccccc" />
        <ellipse
           style="fill:#abf2fd;fill-opacity:1;stroke:none;stroke-width:2.54423;stroke-linecap:round;stroke-linejoin:round;stroke-dasharray:none;stroke-dashoffset:20.1635;stroke-opacity:1;paint-order:stroke fill markers"
           id="circle419"
           cx="246.84958"
           cy="280.37238"
           rx="27.80867"
           ry="25.903967" />
        <path
           id="ellipse428"
           style="fill:#fff79c;fill-opacity:1;stroke:none;stroke-width:2.54423;stroke-linecap:round;stroke-linejoin:round;stroke-dasharray:none;stroke-dashoffset:20.1635;stroke-opacity:1;paint-order:stroke fill markers"
           d="m 246.84961,254.46875 a 27.80867,25.903967 0 0 0 -27.54297,22.44922 27.80867,25.903967 0 0 0 27.54297,22.44922 27.80867,25.903967 0 0 0 27.54687,-22.49805 27.80867,25.903967 0 0 0 -27.54687,-22.40039 z" />
        <ellipse
           style="fill:none;fill-opacity:1;stroke:#000000;stroke-width:2.54423;stroke-linecap:round;stroke-linejoin:round;stroke-dasharray:none;stroke-dashoffset:20.1635;stroke-opacity:1;paint-order:stroke fill markers"
           id="ellipse435"
           cx="246.84958"
           cy="280.37238"
           rx="27.80867"
           ry="25.903967" />
        <path
           id="path440"
           style="fill:#ffffff;fill-opacity:1;stroke:none;stroke-width:1.59754;stroke-linecap:round;stroke-linejoin:round;stroke-dasharray:none;stroke-dashoffset:20.1635;stroke-opacity:1;paint-order:stroke fill markers"
           d="m 246.8503,260.20032 c -8.98975,0.005 -16.59084,5.86006 -17.78978,13.70353 1.19894,7.84348 6.91583,-2.31698 15.90559,-2.31206 9.00199,-0.006 18.49289,10.1384 19.67649,2.28226 -1.21449,-7.83248 -8.81283,-13.67195 -17.7923,-13.67373 z"
           sodipodi:nodetypes="ccccc" />
        <path
           id="path441"
           style="fill:#fff79c;fill-opacity:0.65;stroke:none;stroke-width:7.639;stroke-linecap:round;stroke-linejoin:round;stroke-dasharray:none;stroke-dashoffset:20.1635;stroke-opacity:1;paint-order:stroke fill markers"
           d="M 272.1875,273.18945 220.55664,274.19336 179.01562,345 h 84.60352 c 10.49102,2.5e-4 19.91694,-4.4663 26.55664,-11.57031 z" />
        <path
           id="path442"
           style="fill:#ffffff;fill-opacity:1;stroke:none;stroke-width:1.59754;stroke-linecap:round;stroke-linejoin:round;stroke-dasharray:none;stroke-dashoffset:20.1635;stroke-opacity:1;paint-order:stroke fill markers"
           d="m 246.8503,260.20032 c -8.98975,0.005 -16.59084,5.86006 -17.78978,13.70353 1.19894,7.84348 6.91583,-2.31698 15.90559,-2.31206 9.00199,-0.006 18.49289,10.1384 19.67649,2.28226 -1.21449,-7.83248 -8.81283,-13.67195 -17.7923,-13.67373 z"
           sodipodi:nodetypes="ccccc" />
      </g>
      <g
         id="g464"
         transform="matrix(-1,0,0,1,-2111.2089,-560.91481)"
         style="clip-rule:evenodd;fill-rule:evenodd;stroke-linejoin:round;stroke-miterlimit:2">
        <path
           id="path444"
           d="m 300,242.29297 -24.23633,23.48437 3.70117,9.67774 L 300,252.91602 v -10.29688 z"
           style="opacity:1;fill:#abf2fd;fill-opacity:1;stroke:none;stroke-width:7.639;stroke-linecap:round;stroke-linejoin:round;stroke-dasharray:none;stroke-dashoffset:20.1635;stroke-opacity:1;paint-order:stroke fill markers" />
        <path
           id="path445"
           d="m 300,262.125 c -4.8594,10.03569 -11.84827,20.47657 -18.53125,16.13672 L 280.26562,301.51758 300,302.50391 v -35.99219 z"
           style="opacity:1;fill:#3f76be;fill-opacity:1;stroke:none;stroke-width:7.639;stroke-linecap:round;stroke-linejoin:round;stroke-dasharray:none;stroke-dashoffset:20.1635;stroke-opacity:1;paint-order:stroke fill markers" />
        <path
           id="path446"
           d="m 299.77778,277.59939 c -11.9177,3.43685 -26.28289,11.79805 -32.23568,23.57031 -7.44719,14.72759 -6.88074,26.01206 -5.76695,38.56751 C 261.8941,341.07814 262.7207,345 262.7207,345 h 0.89844 c 1.43982,3e-5 2.85384,-0.10492 4.25,-0.26758 -0.34978,-2.01839 -0.75566,-4.41645 -0.8457,-5.50781 -0.97779,-11.85169 0.5575,-24.48417 6.41797,-34.66602 5.38881,-9.36241 15.93954,-15.38083 26.55859,-18.69726 z"
           style="clip-rule:nonzero;fill-rule:nonzero;stroke-linecap:round;stroke-dashoffset:20.1635;paint-order:stroke fill markers" />
        <path
           id="path447"
           d="m 300,282.01367 c -12.47157,2.99168 -22.04236,9.67514 -28.73047,21.29492 -6.20938,10.78805 -7.74928,23.91422 -6.74219,36.1211 0.15203,1.84267 0.51023,3.66817 1,5.47461 19.20027,-0.9979 34.47311,-16.83641 34.47266,-36.28516 z"
           style="opacity:1;fill:#6bbde5;fill-opacity:1;stroke:none;stroke-width:7.61025;stroke-linecap:round;stroke-linejoin:round;stroke-dasharray:none;stroke-dashoffset:20.1635;stroke-opacity:1;paint-order:stroke fill markers" />
        <path
           id="path448"
           d="m 288.96289,286.04297 c -7.23902,3.72754 -13.13648,9.3486 -17.69336,17.26562 -0.66677,1.15843 -1.26836,2.34833 -1.83008,3.55664 0.53154,5.70608 5.66307,7.19513 17.11524,2.89063 L 294,300.58008 c 2.0271,-10.55968 -0.5107,-13.56397 -5.03711,-14.53711 z"
           style="opacity:1;fill:#abf2fd;fill-opacity:1;stroke:none;stroke-width:7.639;stroke-linecap:round;stroke-linejoin:round;stroke-dasharray:none;stroke-dashoffset:20.1635;stroke-opacity:1;paint-order:stroke fill markers" />
        <path
           id="path449"
           d="m 300,294.65625 a 33.33231,35.998894 0 0 0 -26.10352,35.04883 33.33231,35.998894 0 0 0 2.3379,13.00195 C 290.09933,337.57254 300.00037,324.26967 300,308.61914 Z"
           style="opacity:1;fill:#2f3135;fill-opacity:1;stroke:none;stroke-width:3.9;stroke-linecap:round;stroke-linejoin:round;stroke-dasharray:none;stroke-dashoffset:20.1635;stroke-opacity:1;paint-order:stroke fill markers" />
        <path
           id="path450"
           d="m 286.32227,305.13672 c -1.13035,0.0248 -2.45654,0.26662 -4.00196,0.74805 a 33.33231,35.998894 0 0 0 -7.22851,14.54492 l 10.07812,5.94922 8.13672,-8.3125 c -0.30029,-6.54092 -0.6104,-13.06983 -6.98437,-12.92969 z"
           style="opacity:1;fill:#3d4247;fill-opacity:1;stroke:none;stroke-width:7.639;stroke-linecap:round;stroke-linejoin:round;stroke-dasharray:none;stroke-dashoffset:20.1635;stroke-opacity:1;paint-order:stroke fill markers" />
        <path
           id="path451"
           d="m 276.77148,315.17188 a 33.33231,35.998894 0 0 0 -2.875,14.5332 33.33231,35.998894 0 0 0 2.3379,13.00195 c 4.82331,-1.78618 9.16536,-4.56384 12.77929,-8.08203 l 2.90821,-17.59766 c -10e-6,0 -8.26688,4.75343 -11.94727,2.94336 -1.45212,-0.71417 -2.49086,-2.73822 -3.20313,-4.79882 z"
           style="opacity:1;fill:#1c1e20;fill-opacity:1;stroke:none;stroke-width:7.639;stroke-linecap:round;stroke-linejoin:round;stroke-dasharray:none;stroke-dashoffset:20.1635;stroke-opacity:1;paint-order:stroke fill markers" />
        <path
           id="path452"
           d="m 300,308.58203 a 21.906739,23.659278 0 0 0 -14.77344,22.29688 21.906739,23.659278 0 0 0 0.84375,6.31836 C 294.54632,330.54748 300.00027,320.23115 300,308.61914 Z"
           style="opacity:1;fill:#b7b7b8;fill-opacity:1;stroke:none;stroke-width:2.56317;stroke-linecap:round;stroke-linejoin:round;stroke-dasharray:none;stroke-dashoffset:20.1635;stroke-opacity:1;paint-order:stroke fill markers" />
        <path
           id="path453"
           d="m 300,292.52344 c -15.58901,4.3773 -28.01111,19.83577 -28.05273,37.17773 -2e-5,0.005 -2e-5,0.0104 0,0.0156 0.0247,3.91584 1.02956,9.38955 2.26367,13.70703 1.29659,-0.39411 2.56217,-0.86007 3.79297,-1.39063 -1.11786,-3.97413 -2.13715,-9.12743 -2.15821,-12.33398 0.0408,-15.04796 10.87218,-28.68094 24.1543,-32.98047 z"
           style="clip-rule:nonzero;fill-rule:nonzero;stroke-linecap:round;stroke-dashoffset:20.1635;paint-order:stroke fill markers" />
        <path
           id="path454"
           d="m 284.18177,275.42014 a 37.332188,37.332188 0 0 1 -37.33219,37.33218 37.332188,37.332188 0 0 1 -37.33219,-37.33218 37.332188,37.332188 0 0 1 37.33219,-37.33219 37.332188,37.332188 0 0 1 37.33219,37.33219 z"
           style="opacity:1;fill:none;fill-opacity:1;stroke:#000000;stroke-width:7.639;stroke-linecap:round;stroke-linejoin:round;stroke-dasharray:none;stroke-dashoffset:20.1635;stroke-opacity:1;paint-order:stroke fill markers" />
        <path
           id="path455"
           d="m 299.88477,307.30469 a 1.2817131,1.2817131 0 0 0 -0.33204,0.0762 c -9.35442,3.47924 -15.57721,12.92282 -15.60742,23.49414 a 1.2817131,1.2817131 0 0 0 0,0.0137 c 0.0108,1.47552 0.58604,3.19132 1.1836,4.96094 0.19289,0.57124 0.37898,1.09984 0.56836,1.64062 0.72348,-0.55261 1.42611,-1.13227 2.10546,-1.73632 -0.0813,-0.24406 -0.15266,-0.45372 -0.24414,-0.72461 -0.57743,-1.71004 -1.0451,-3.49276 -1.05078,-4.15625 0,-5.9e-4 10e-6,-0.003 0,-0.004 0.0321,-9.37515 5.4571,-17.6504 13.46485,-20.87305 0.017,-0.45674 0.0273,-0.91599 0.0273,-1.37695 v -1.30859 a 1.2817131,1.2817131 0 0 0 -0.11523,-0.006 z"
           style="clip-rule:nonzero;fill-rule:nonzero;stroke-linecap:round;stroke-dashoffset:20.1635;paint-order:stroke fill markers" />
        <path
           id="path456"
           d="m 284.18177,275.42014 a 37.332188,37.332188 0 0 1 -37.33219,37.33218 37.332188,37.332188 0 0 1 -37.33219,-37.33218 37.332188,37.332188 0 0 1 37.33219,-37.33219 37.332188,37.332188 0 0 1 37.33219,37.33219 z"
           style="opacity:1;fill:#6bbde5;fill-opacity:1;stroke:none;stroke-width:3.53889;stroke-linecap:round;stroke-linejoin:round;stroke-dasharray:none;stroke-dashoffset:20.1635;stroke-opacity:1;paint-order:stroke fill markers" />
        <path
           id="path457"
           d="m 246.84961,238.08789 c -10.40119,0.0254 -20.32023,4.38884 -27.36719,12.03906 -6.68329,6.60886 1.74635,2.17999 2.6154,1.63171 4.38453,-2.76618 7.6156,-5.38236 15.01937,-5.16491 -13.01478,7.08444 -6.57369,9.5467 1.68554,11.58203 l 26.74415,6.10742 c 1.72515,-6.00069 0.95584,-14.80765 11.14257,-11.28906 -7.05044,-9.38314 -18.10306,-14.90439 -29.83984,-14.90625 z"
           style="opacity:1;fill:#abf2fd;fill-opacity:1;stroke:none;stroke-width:7.639;stroke-linecap:round;stroke-linejoin:round;stroke-dasharray:none;stroke-dashoffset:20.1635;stroke-opacity:1;paint-order:stroke fill markers" />
        <path
           id="path458"
           d="m 268.46875,274.62305 -47.34961,4.73437 c -4.88195,1.39414 -17.62694,-7.35758 -6.58008,14.58985 6.62987,11.59777 18.95158,18.76898 32.31055,18.80468 14.21185,-0.0257 27.1764,-8.11855 33.44141,-20.875 10.15412,-22.45634 -7.77252,-11.63178 -11.82227,-17.2539 z"
           style="opacity:1;fill:#3f76be;fill-opacity:1;stroke:none;stroke-width:7.639;stroke-linecap:round;stroke-linejoin:round;stroke-dasharray:none;stroke-dashoffset:20.1635;stroke-opacity:1;paint-order:stroke fill markers" />
        <path
           id="path459"
           d="m 274.65825,280.37238 a 27.80867,25.903967 0 0 1 -27.80867,25.90396 27.80867,25.903967 0 0 1 -27.80867,-25.90396 27.80867,25.903967 0 0 1 27.80867,-25.90397 27.80867,25.903967 0 0 1 27.80867,25.90397 z"
           style="opacity:1;fill:#abf2fd;fill-opacity:1;stroke:none;stroke-width:2.54423;stroke-linecap:round;stroke-linejoin:round;stroke-dasharray:none;stroke-dashoffset:20.1635;stroke-opacity:1;paint-order:stroke fill markers" />
        <path
           id="path460"
           d="m 246.84961,254.46875 a 27.80867,25.903967 0 0 0 -27.54297,22.44922 27.80867,25.903967 0 0 0 27.54297,22.44922 27.80867,25.903967 0 0 0 27.54687,-22.49805 27.80867,25.903967 0 0 0 -27.54687,-22.40039 z"
           style="opacity:1;fill:#fff79c;fill-opacity:1;stroke:none;stroke-width:2.54423;stroke-linecap:round;stroke-linejoin:round;stroke-dasharray:none;stroke-dashoffset:20.1635;stroke-opacity:1;paint-order:stroke fill markers" />
        <path
           id="path461"
           d="m 274.65825,280.37238 a 27.80867,25.903967 0 0 1 -27.80867,25.90396 27.80867,25.903967 0 0 1 -27.80867,-25.90396 27.80867,25.903967 0 0 1 27.80867,-25.90397 27.80867,25.903967 0 0 1 27.80867,25.90397 z"
           style="opacity:1;fill:none;fill-opacity:1;stroke:#000000;stroke-width:2.54423;stroke-linecap:round;stroke-linejoin:round;stroke-dasharray:none;stroke-dashoffset:20.1635;stroke-opacity:1;paint-order:stroke fill markers" />
        <path
           id="path462"
           d="m 246.8503,260.20032 c -8.98975,0.005 -16.59084,5.86006 -17.78978,13.70353 1.19894,7.84348 6.91583,-2.31698 15.90559,-2.31206 9.00199,-0.006 18.49289,10.1384 19.67649,2.28226 -1.21449,-7.83248 -8.81283,-13.67195 -17.7923,-13.67373 z"
           style="opacity:1;fill:#ffffff;fill-opacity:1;stroke:none;stroke-width:1.59754;stroke-linecap:round;stroke-linejoin:round;stroke-dasharray:none;stroke-dashoffset:20.1635;stroke-opacity:1;paint-order:stroke fill markers" />
        <path
           id="path463"
           d="M 272.1875,273.18945 220.55664,274.19336 179.01562,345 h 84.60352 c 10.49102,2.5e-4 19.91694,-4.4663 26.55664,-11.57031 z"
           style="opacity:1;fill:#fff79c;fill-opacity:0.65;stroke:none;stroke-width:7.639;stroke-linecap:round;stroke-linejoin:round;stroke-dasharray:none;stroke-dashoffset:20.1635;stroke-opacity:1;paint-order:stroke fill markers" />
        <path
           id="path464"
           d="m 246.8503,260.20032 c -8.98975,0.005 -16.59084,5.86006 -17.78978,13.70353 1.19894,7.84348 6.91583,-2.31698 15.90559,-2.31206 9.00199,-0.006 18.49289,10.1384 19.67649,2.28226 -1.21449,-7.83248 -8.81283,-13.67195 -17.7923,-13.67373 z"
           style="opacity:1;fill:#ffffff;fill-opacity:1;stroke:none;stroke-width:1.59754;stroke-linecap:round;stroke-linejoin:round;stroke-dasharray:none;stroke-dashoffset:20.1635;stroke-opacity:1;paint-order:stroke fill markers" />
      </g>
      <g
         id="g469"
         transform="translate(-2411.2089,-557.6817)"
         style="clip-rule:evenodd;fill-rule:evenodd;stroke-linejoin:round;stroke-miterlimit:2">
        <path
           style="opacity:1;fill:#3f76be;fill-opacity:1;stroke:none;stroke-width:9;stroke-linecap:round;stroke-linejoin:round;stroke-dasharray:none;stroke-dashoffset:20.1635;stroke-opacity:1;paint-order:stroke fill markers"
           d="m 139.53194,263.22765 -0.20202,17.16762 a 1.9145479,1.9145479 44.423648 0 0 1.97545,1.9361 l 14.23768,-0.45412 c 2.35238,-0.075 5.23832,-1.89678 5.30744,-4.22958 0.024,-0.81022 -0.0438,-1.60984 -0.15544,-2.4143 -0.15176,-1.09395 -1.0115,-2.55479 -1.85015,-3.27363 l -2.22765,-1.90942 a 4.4425009,4.4425009 64.838455 0 1 -1.55078,-3.30132 l -0.0191,-1.18162 a 2.3637886,2.3637886 48.841041 0 0 -2.00975,-2.29904 l -11.50471,-1.74125 a 1.7406483,1.7406483 139.64034 0 0 -2.00101,1.70056 z"
           id="path469"
           sodipodi:nodetypes="ccccccc"
           inkscape:path-effect="#path-effect469"
           inkscape:original-d="m 139.55547,261.22779 -0.24908,21.16734 20.49602,-0.65374 c 1.54056,-3.03842 1.07897,-5.65723 0.561,-8.48007 l -5.26467,-4.51258 -0.0836,-5.1811 z"
           transform="matrix(1.0970108,0,0,1.0970108,-14.5606,-26.298773)" />
        <path
           id="path468"
           style="opacity:1;fill:none;fill-opacity:1;stroke:#769d9d;stroke-width:1.45616;stroke-linecap:round;stroke-linejoin:round;stroke-dasharray:none;stroke-dashoffset:20.1635;stroke-opacity:1;paint-order:stroke fill markers"
           d="m 149.01185,259.48754 c -6.62679,0 -9.94166,0.44773 -9.94166,1.34555 v 1.63052 16.41017 1.63052 c 0,0.28055 0.19512,0.48613 0.58493,0.61707 0.38982,0.13092 1.15893,0.19711 2.30544,0.19711 h 7.53123 c 1.44459,0 2.69478,-0.0367 3.74955,-0.11141 2.4994,-0.20576 4.35761,-0.70137 5.57291,-1.48697 1.39874,-0.89782 2.0976,-2.28191 2.0976,-4.15235 0,-0.30761 -0.0169,-0.59435 -0.0428,-0.86775 0.028,-0.24526 0.0428,-0.49802 0.0428,-0.76277 0,-1.60861 -0.35618,-2.75052 -1.06702,-3.42388 -0.27691,-0.26232 -0.58227,-0.48639 -0.91488,-0.67491 0.0647,-0.0704 0.12947,-0.14316 0.19283,-0.22069 0.61912,-0.72949 0.92774,-1.82349 0.92774,-3.28246 0,-0.25851 -0.0176,-0.50089 -0.045,-0.73706 0.029,-0.28158 0.045,-0.57769 0.045,-0.89346 0,-0.74817 -0.1135,-1.40148 -0.34281,-1.96262 -0.41274,-0.95394 -1.35213,-1.73961 -2.81966,-2.35686 -1.4446,-0.59854 -4.06979,-0.89775 -7.8762,-0.89775 z m -0.34495,5.81073 h 1.1013 c 0.38981,0 0.73248,0.15768 1.03058,0.47566 0.16812,0.15674 0.29276,0.36157 0.37281,0.61064 -0.21972,0.71416 -0.76924,1.07129 -1.64551,1.07129 h -0.85918 z m 0,8.05189 h 1.1013 c 0.38981,0 0.73248,0.15982 1.03058,0.4778 0.16804,0.15665 0.29276,0.3596 0.37281,0.60849 -0.21972,0.71417 -0.76924,1.07131 -1.64551,1.07131 h -0.85918 z" />
        <path
           id="path467"
           style="opacity:1;fill:#b1c7c7;fill-opacity:1;stroke:none;stroke-width:1.45616;stroke-linecap:round;stroke-linejoin:round;stroke-dasharray:none;stroke-dashoffset:20.1635;stroke-opacity:1;paint-order:stroke fill markers"
           d="m 149.01081,261.11732 c -6.62679,0 -9.94025,0.44903 -9.94025,1.34685 v 18.04049 c 0,0.28057 0.19486,0.48641 0.58467,0.61735 0.38981,0.13093 1.15784,0.19635 2.30435,0.19635 h 7.53269 c 1.44458,0 2.69423,-0.0374 3.74901,-0.11217 2.49939,-0.20575 4.35663,-0.70138 5.57194,-1.48697 1.39874,-0.89783 2.09826,-2.28198 2.09826,-4.15243 0,-1.60861 -0.35527,-2.74957 -1.06611,-3.42293 -0.71083,-0.67338 -1.6052,-1.10358 -2.68291,-1.29063 0.71083,-0.0935 1.36422,-0.5052 1.9604,-1.23468 0.61912,-0.72949 0.9286,-1.82355 0.9286,-3.28251 0,-0.74818 -0.11463,-1.40276 -0.34394,-1.96391 -0.41274,-0.95394 -1.3529,-1.73966 -2.82042,-2.35691 -1.4446,-0.59854 -4.06988,-0.8979 -7.87629,-0.8979 z m -0.34394,4.18069 h 1.10039 c 0.38982,0 0.73408,0.15894 1.03218,0.47692 0.32102,0.29927 0.48144,0.76684 0.48144,1.40279 0,1.27191 -0.5849,1.90796 -1.75433,1.90796 h -0.85968 z m 0,8.05228 h 1.10039 c 0.38982,0 0.73408,0.15893 1.03218,0.47691 0.32102,0.29927 0.48144,0.76684 0.48144,1.40281 0,1.27189 -0.5849,1.90796 -1.75433,1.90796 h -0.85968 z" />
        <path
           id="rect467"
           style="opacity:1;fill:#f7f8f8;fill-opacity:1;stroke:none;stroke-width:1.45616;stroke-linecap:round;stroke-linejoin:round;stroke-dasharray:none;stroke-dashoffset:20.1635;stroke-opacity:1;paint-order:stroke fill markers"
           d="m 149.01081,259.48707 c -6.62679,0 -9.94025,0.44903 -9.94025,1.34684 v 18.0405 c 0,0.28056 0.19486,0.4864 0.58467,0.61734 0.38981,0.13093 1.15784,0.19635 2.30435,0.19635 h 7.53269 c 1.44458,0 2.69423,-0.0374 3.74901,-0.11216 2.49939,-0.20576 4.35663,-0.70139 5.57194,-1.48698 1.39874,-0.89783 2.09826,-2.28198 2.09826,-4.15243 0,-1.60861 -0.35527,-2.74957 -1.06611,-3.42292 -0.71083,-0.67338 -1.6052,-1.10359 -2.68291,-1.29064 0.71083,-0.0935 1.36422,-0.50519 1.9604,-1.23467 0.61912,-0.72949 0.9286,-1.82355 0.9286,-3.28252 0,-0.74817 -0.11463,-1.40276 -0.34394,-1.9639 -0.41274,-0.95394 -1.3529,-1.73967 -2.82042,-2.35692 -1.4446,-0.59854 -4.06988,-0.89789 -7.87629,-0.89789 z m -0.34394,4.18068 h 1.10039 c 0.38982,0 0.73408,0.15894 1.03218,0.47692 0.32102,0.29927 0.48144,0.76684 0.48144,1.40279 0,1.27192 -0.5849,1.90796 -1.75433,1.90796 h -0.85968 z m 0,8.05228 h 1.10039 c 0.38982,0 0.73408,0.15894 1.03218,0.47692 0.32102,0.29926 0.48144,0.76683 0.48144,1.4028 0,1.2719 -0.5849,1.90796 -1.75433,1.90796 h -0.85968 z" />
      </g>
    </g>
  </g>
</svg>
