<?xml version="1.0" encoding="UTF-8" standalone="no"?>
<!DOCTYPE svg PUBLIC "-//W3C//DTD SVG 1.1//EN" "http://www.w3.org/Graphics/SVG/1.1/DTD/svg11.dtd">
<svg width="100%" height="100%" viewBox="0 0 300 345" version="1.1" xmlns="http://www.w3.org/2000/svg" xmlns:xlink="http://www.w3.org/1999/xlink" xml:space="preserve" xmlns:serif="http://www.serif.com/" style="fill-rule:evenodd;clip-rule:evenodd;stroke-linejoin:round;stroke-miterlimit:2;">
    <g id="Aviator">
        <g>
            <path d="M-0,244.576L0,118.81L32.308,118.81C30.574,129.982 28.349,140.54 25.072,149.781L27.821,156.583L23.335,157.017C25.874,165.403 25.91,169.52 21.888,166.714C24.73,168.831 24.498,174.269 26.663,178.437L22.125,178.122C22.687,184.507 23.645,192.355 24.493,200.29L22.032,200.869C25.208,208.426 27.302,216.082 26.229,224.025L22.901,222.722C24.063,229.394 23.523,235.602 20.44,241.116L17.546,239.51C15.454,246.095 9.761,247.319 4.086,249.207L3.652,244.142L-0,244.576ZM300,244.576L296.348,244.142L295.914,249.207C290.239,247.319 284.546,246.095 282.454,239.51L279.56,241.116C276.477,235.602 275.937,229.394 277.099,222.722L273.771,224.025C272.698,216.082 274.792,208.426 277.968,200.869L275.507,200.29C276.355,192.355 277.313,184.507 277.875,178.122L273.337,178.437C275.502,174.269 275.27,168.831 278.112,166.714C274.09,169.52 274.126,165.403 276.665,157.017L272.179,156.583L274.928,149.781C271.651,140.54 269.426,129.982 267.692,118.81L300,118.81L300,244.576Z" style="fill:rgb(208,168,123);"/>
            <g transform="matrix(1.81356,0,0,3.04371,-101.235,-337.042)">
                <path d="M206.662,150.546L70.401,150.546C69.837,155.596 66.569,159.808 66.02,164.867C65.356,170.976 67.451,178.985 66.892,184.126C66.392,188.735 62.342,190.456 55.821,189.826L55.821,138.763C55.821,133.523 57.426,131.137 59.562,129.402C63.096,126.531 69.726,123.95 75.43,122.442C87.846,119.16 102.107,117.779 115.689,117.648L161.374,117.648C174.956,117.779 189.216,119.16 201.633,122.442C207.337,123.95 213.966,126.531 217.501,129.402C219.637,131.137 221.241,133.523 221.241,138.763L221.241,189.826C214.721,190.456 210.671,188.735 210.17,184.126C209.612,178.985 211.707,170.976 211.043,164.867C210.494,159.808 207.226,155.596 206.662,150.546Z" style="fill:rgb(184,125,85);"/>
            </g>
            <g transform="matrix(1.81356,0,0,3.04371,-101.235,-337.042)">
                <path d="M210.283,178.341C210.67,174.127 211.429,169.363 211.089,165.345L221.241,163.245L221.241,176.897L210.283,178.341ZM55.821,176.897L55.821,163.245L65.973,165.345C65.634,169.363 66.393,174.127 66.779,178.341L55.821,176.897ZM68.628,124.629C70.878,123.77 73.223,123.026 75.43,122.442C87.846,119.16 102.107,117.779 115.689,117.648L161.374,117.648C174.956,117.779 189.216,119.16 201.633,122.442C203.839,123.026 206.184,123.77 208.435,124.629C201.483,130.835 197.057,139.993 193.652,150.546L83.41,150.546C80.006,139.993 75.58,130.835 68.628,124.629Z" style="fill:rgb(195,141,104);"/>
            </g>
            <path d="M-0,159.702L18.44,165.682C18.362,167.097 18.311,168.544 18.283,170.017L-0,164.088L-0,159.702ZM18.723,162.045L18.57,161.995C17.474,161.64 16.874,160.463 17.229,159.368C17.519,158.472 18.359,157.907 19.254,157.925C19.045,159.282 18.866,160.654 18.723,162.045ZM280.747,157.929C281.575,157.982 282.327,158.53 282.599,159.368C282.953,160.458 282.358,161.631 281.271,161.991C281.13,160.62 280.952,159.267 280.747,157.929ZM281.557,165.627L300,159.646L300,164.032L281.716,169.961C281.688,168.489 281.636,167.042 281.557,165.627ZM300,155.45C299.42,155.237 298.94,154.769 298.734,154.135C298.387,153.066 298.953,151.917 300,151.534L300,155.45ZM283.049,46.717C271.154,68.469 264.596,91.332 259.676,118.995C259.475,120.129 258.391,120.885 257.258,120.684C256.124,120.482 255.367,119.398 255.569,118.265C260.613,89.901 267.38,66.503 279.659,44.22C280.816,45.027 281.949,45.86 283.049,46.717ZM272.508,39.717C272.882,40.324 272.936,41.107 272.582,41.783C271.93,43.028 271.299,44.277 270.688,45.531C270.184,46.566 268.935,46.997 267.9,46.493C266.864,45.989 266.433,44.74 266.937,43.704C267.566,42.414 268.215,41.128 268.886,39.847C269.257,39.14 269.977,38.734 270.723,38.729C271.318,39.05 271.913,39.379 272.508,39.717ZM152.086,21.044L152.086,114.652C152.086,115.803 151.151,116.738 150,116.738C148.849,116.738 147.914,115.803 147.914,114.652L147.914,21.044L152.086,21.044ZM29.264,38.736C29.952,38.793 30.597,39.19 30.941,39.847C31.613,41.128 32.262,42.414 32.89,43.704C33.394,44.74 32.963,45.989 31.928,46.493C30.893,46.997 29.644,46.566 29.139,45.531C28.529,44.277 27.898,43.028 27.246,41.783C26.919,41.159 26.94,40.445 27.238,39.862C27.913,39.476 28.589,39.1 29.264,38.736ZM20.216,44.307C32.465,66.564 39.222,89.938 44.259,118.265C44.46,119.398 43.704,120.482 42.57,120.684C41.437,120.885 40.353,120.129 40.151,118.995C35.239,91.372 28.692,68.535 16.83,46.812C17.929,45.952 19.061,45.116 20.216,44.307ZM-0,151.606C0.936,152.046 1.421,153.126 1.093,154.135C0.909,154.705 0.502,155.141 -0,155.378L-0,151.606ZM280.252,203.579L300,199.618L300,203.873L280.017,207.881C280.086,206.469 280.166,205.033 280.252,203.579ZM300,196L297.494,196.503C296.365,196.73 295.265,195.997 295.038,194.868C294.812,193.739 295.544,192.639 296.673,192.413L300,191.745L300,196ZM-0,191.78L3.155,192.413C4.283,192.639 5.016,193.739 4.789,194.868C4.563,195.997 3.463,196.73 2.334,196.503L-0,196.035L-0,191.78ZM-0,199.652L19.75,203.614C19.836,205.068 19.915,206.504 19.985,207.916L-0,203.907L-0,199.652ZM284.24,194.907L288.385,194.075C289.513,193.849 290.614,194.581 290.84,195.71C291.067,196.839 290.334,197.939 289.205,198.166L285.061,198.997C283.932,199.224 282.832,198.491 282.605,197.362C282.379,196.233 283.112,195.133 284.24,194.907ZM140.195,61.816C140.195,60.665 141.13,59.73 142.281,59.73C143.433,59.73 144.367,60.665 144.367,61.816L144.367,66.043C144.367,67.194 143.433,68.129 142.281,68.129C141.13,68.129 140.195,67.194 140.195,66.043L140.195,61.816ZM140.195,23.774C140.195,22.623 141.13,21.688 142.281,21.688C143.433,21.688 144.367,22.623 144.367,23.774L144.367,28.001C144.367,29.152 143.433,30.087 142.281,30.087C141.13,30.087 140.195,29.152 140.195,28.001L140.195,23.774ZM140.195,36.455C140.195,35.304 141.13,34.369 142.281,34.369C143.433,34.369 144.367,35.304 144.367,36.455L144.367,40.682C144.367,41.833 143.433,42.768 142.281,42.768C141.13,42.768 140.195,41.833 140.195,40.682L140.195,36.455ZM140.195,49.135C140.195,47.984 141.13,47.049 142.281,47.049C143.433,47.049 144.367,47.984 144.367,49.135L144.367,53.362C144.367,54.514 143.433,55.448 142.281,55.448C141.13,55.448 140.195,54.514 140.195,53.362L140.195,49.135ZM288.013,155.419L292.034,154.115C293.129,153.76 294.306,154.361 294.661,155.456C295.017,156.551 294.416,157.729 293.321,158.084L289.3,159.388C288.205,159.743 287.027,159.142 286.672,158.047C286.317,156.952 286.918,155.774 288.013,155.419ZM259.312,77.149C258.965,78.51 258.631,79.876 258.309,81.248C258.047,82.369 256.923,83.066 255.802,82.803C254.682,82.54 253.985,81.417 254.248,80.296C254.575,78.898 254.916,77.505 255.27,76.118C255.555,75.002 256.691,74.327 257.807,74.612C258.922,74.897 259.597,76.034 259.312,77.149ZM267.23,53.187C266.688,54.482 266.166,55.782 265.662,57.087C265.247,58.161 264.038,58.696 262.964,58.281C261.89,57.866 261.355,56.658 261.77,55.584C262.288,54.243 262.824,52.908 263.38,51.578C263.825,50.516 265.047,50.014 266.11,50.458C267.172,50.902 267.674,52.125 267.23,53.187ZM256.528,89.507C256.255,90.886 255.992,92.271 255.738,93.662C255.531,94.794 254.444,95.546 253.311,95.339C252.179,95.132 251.427,94.045 251.634,92.912C251.891,91.501 252.158,90.096 252.436,88.696C252.66,87.567 253.758,86.831 254.887,87.055C256.017,87.279 256.752,88.377 256.528,89.507ZM262.836,65.011C262.398,66.345 261.976,67.684 261.57,69.028C261.237,70.13 260.072,70.754 258.97,70.421C257.868,70.088 257.243,68.923 257.576,67.821C257.992,66.445 258.423,65.075 258.872,63.71C259.231,62.616 260.411,62.02 261.504,62.379C262.598,62.738 263.195,63.918 262.836,65.011ZM254.328,102.011C254.111,103.403 253.901,104.8 253.697,106.202C253.531,107.342 252.472,108.132 251.333,107.966C250.193,107.801 249.403,106.741 249.568,105.602C249.774,104.185 249.987,102.773 250.206,101.367C250.384,100.23 251.452,99.45 252.589,99.628C253.727,99.806 254.506,100.873 254.328,102.011ZM252.552,114.61C252.462,115.311 252.373,116.013 252.286,116.717C252.143,117.859 251.1,118.671 249.958,118.529C248.815,118.387 248.003,117.344 248.146,116.201C248.234,115.493 248.323,114.786 248.413,114.08C248.56,112.938 249.605,112.13 250.747,112.276C251.889,112.422 252.698,113.468 252.552,114.61ZM40.515,77.149C40.231,76.034 40.905,74.897 42.021,74.612C43.136,74.327 44.273,75.002 44.558,76.118C44.912,77.505 45.252,78.898 45.58,80.296C45.843,81.417 45.146,82.54 44.025,82.803C42.904,83.066 41.781,82.369 41.518,81.248C41.197,79.876 40.863,78.51 40.515,77.149ZM47.276,114.61C47.13,113.468 47.938,112.422 49.08,112.276C50.222,112.13 51.268,112.938 51.414,114.08C51.505,114.786 51.594,115.493 51.682,116.201C51.824,117.344 51.012,118.387 49.87,118.529C48.727,118.671 47.684,117.859 47.542,116.717C47.454,116.013 47.366,115.311 47.276,114.61ZM45.499,102.011C45.322,100.873 46.101,99.806 47.239,99.628C48.376,99.45 49.444,100.23 49.621,101.367C49.841,102.773 50.054,104.185 50.259,105.602C50.425,106.741 49.635,107.801 48.495,107.966C47.356,108.132 46.296,107.342 46.131,106.202C45.927,104.8 45.717,103.403 45.499,102.011ZM43.3,89.507C43.076,88.377 43.811,87.279 44.94,87.055C46.07,86.831 47.168,87.567 47.392,88.696C47.669,90.096 47.936,91.501 48.194,92.912C48.401,94.045 47.649,95.132 46.517,95.339C45.384,95.546 44.297,94.794 44.09,93.662C43.836,92.271 43.573,90.886 43.3,89.507ZM32.598,53.187C32.154,52.125 32.656,50.902 33.718,50.458C34.78,50.014 36.003,50.516 36.447,51.578C37.003,52.908 37.54,54.243 38.058,55.584C38.473,56.658 37.938,57.866 36.864,58.281C35.79,58.696 34.581,58.161 34.166,57.087C33.662,55.782 33.14,54.482 32.598,53.187ZM36.992,65.011C36.633,63.918 37.23,62.738 38.323,62.379C39.417,62.02 40.597,62.616 40.956,63.71C41.404,65.075 41.836,66.445 42.251,67.821C42.584,68.923 41.96,70.088 40.858,70.421C39.756,70.754 38.591,70.13 38.258,69.028C37.852,67.684 37.43,66.345 36.992,65.011ZM140.195,99.858C140.195,98.707 141.13,97.772 142.281,97.772C143.433,97.772 144.367,98.707 144.367,99.858L144.367,104.085C144.367,105.236 143.433,106.171 142.281,106.171C141.13,106.171 140.195,105.236 140.195,104.085L140.195,99.858ZM11.815,155.419C12.91,155.774 13.511,156.952 13.156,158.047C12.801,159.142 11.623,159.743 10.528,159.388L6.507,158.084C5.412,157.729 4.811,156.551 5.166,155.456C5.521,154.361 6.699,153.76 7.794,154.115L11.815,155.419ZM140.195,87.177C140.195,86.026 141.13,85.091 142.281,85.091C143.433,85.091 144.367,86.026 144.367,87.177L144.367,91.404C144.367,92.555 143.433,93.49 142.281,93.49C141.13,93.49 140.195,92.555 140.195,91.404L140.195,87.177ZM140.195,112.539C140.195,111.387 141.13,110.453 142.281,110.453C143.433,110.453 144.367,111.387 144.367,112.539L144.367,114.652C144.367,115.803 143.433,116.738 142.281,116.738C141.13,116.738 140.195,115.803 140.195,114.652L140.195,112.539ZM140.195,74.497C140.195,73.345 141.13,72.411 142.281,72.411C143.433,72.411 144.367,73.345 144.367,74.497L144.367,78.724C144.367,79.875 143.433,80.81 142.281,80.81C141.13,80.81 140.195,79.875 140.195,78.724L140.195,74.497ZM15.587,194.907C16.716,195.133 17.449,196.233 17.222,197.362C16.996,198.491 15.896,199.224 14.767,198.997L10.623,198.166C9.494,197.939 8.761,196.839 8.988,195.71C9.214,194.581 10.314,193.849 11.443,194.075L15.587,194.907Z" style="fill:rgb(163,108,71);"/>
            <path d="M20.339,113.41C20.715,121.015 20.422,128.487 14.984,134.929C20.332,136.123 25.459,136.1 30.035,133.047C32.162,139.064 35.241,142.227 39.297,142.455C41.082,136.917 45.183,135.61 48.126,131.08C51.031,135.129 54.579,138.406 59.414,140.139L69.4,131.08C71.726,134.62 73.78,138.432 75.334,142.744C81.076,141.59 86.721,140.004 91.688,135.363C95.347,138.808 99.268,141.47 103.7,142.599C104.716,139.305 106.157,136.294 108.331,133.771C109.692,140.649 118.867,141.48 124.974,144.915L131.487,136.81C134.644,141.317 138.071,145.621 142.776,148.967C147.771,144.019 152.927,139.632 158.695,137.389L159.129,144.336C167.94,143.785 175.701,144.109 181.851,136.521C184.505,141.549 188.605,142.129 191.982,145.783L196.324,138.258C199.523,140.933 202.964,143.447 207.323,145.349C210.089,141.445 213.382,138.155 218.467,136.955C221.652,140.115 226.087,143.588 232.36,147.52C233.864,138.199 249.133,141.673 253.2,132.469C255.057,134.495 257.372,136.521 261.16,138.547L264.344,132.903C268.819,138.955 275.259,141.275 283.593,139.994C277.349,131.739 283.702,126.526 282.001,118.81L282.145,92.09C284.543,85.225 283.607,78.984 279.83,73.276L274.764,78.052C272.54,75.061 269.608,72.07 266.226,69.079L258.121,74.434C245.41,73.943 232.818,71.79 220.493,65.895L220.493,71.829C216.771,69.996 214.325,70.236 213.691,73.421L209.638,67.632C205.518,73.292 199.902,71.237 195.455,74.723L182.72,69.369L117.159,71.395C113.078,71.387 109.132,72.319 105.437,75.013C100.728,72.449 94.014,72.61 90.819,67.053C89.064,68.488 87.943,70.346 87.346,72.553C86.73,69.622 84.248,69.067 79.386,71.539L79.676,65.895C69.62,71.192 60.495,74.111 53.915,70.526L41.324,72.553L34.956,68.356C31.104,71.254 28.002,74.527 25.693,78.197L21.207,73.131C16.058,77.844 15.743,85.159 20.628,95.274L20.339,113.41Z" style="fill:rgb(208,168,123);"/>
            <path d="M18.34,129.529C22.473,130.002 26.426,129.479 30.035,127.071C32.162,133.088 35.241,136.251 39.297,136.478C41.082,130.941 45.183,129.634 48.126,125.103C51.031,129.152 54.579,132.43 59.414,134.163L69.4,125.103C71.726,128.644 73.78,132.455 75.334,136.768C81.076,135.614 86.721,134.028 91.688,129.387C95.347,132.832 99.268,135.494 103.7,136.623C104.716,133.329 106.157,130.317 108.331,127.795C109.692,134.673 118.867,135.504 124.974,138.938L131.487,130.834C134.644,135.34 138.071,139.645 142.776,142.991C147.771,138.042 152.927,133.656 158.695,131.413L159.129,138.36C167.94,137.809 175.701,138.133 181.851,130.544C184.505,135.572 188.605,136.153 191.982,139.807L196.324,132.281C199.523,134.956 202.964,137.47 207.323,139.373C210.089,135.468 213.382,132.178 218.467,130.979C221.652,134.139 226.087,137.612 232.36,141.544C233.864,132.222 249.133,135.697 253.2,126.492C255.057,128.518 257.372,130.544 261.16,132.571L264.344,126.926C268.335,132.323 273.887,134.752 280.953,134.307C281.264,136.071 282.038,137.938 283.593,139.994C275.259,141.275 268.819,138.955 264.344,132.903L261.16,138.547C257.372,136.521 255.057,134.495 253.2,132.469C249.133,141.673 233.864,138.199 232.36,147.52C226.087,143.588 221.652,140.115 218.467,136.955C213.382,138.155 210.089,141.445 207.323,145.349C202.964,143.447 199.523,140.933 196.324,138.258L191.982,145.783C188.605,142.129 184.505,141.549 181.851,136.521C175.701,144.109 167.94,143.785 159.129,144.336L158.695,137.389C152.927,139.632 147.771,144.019 142.776,148.967C138.071,145.621 134.644,141.317 131.487,136.81L124.974,144.915C118.867,141.48 109.692,140.649 108.331,133.771C106.157,136.294 104.716,139.305 103.7,142.599C99.268,141.47 95.347,138.808 91.688,135.363C86.721,140.004 81.076,141.59 75.334,142.744C73.78,138.432 71.726,134.62 69.4,131.08L59.414,140.139C54.579,138.406 51.031,135.129 48.126,131.08C45.183,135.61 41.082,136.917 39.297,142.455C35.241,142.227 32.162,139.064 30.035,133.047C25.459,136.1 20.332,136.123 14.984,134.929C16.445,133.198 17.535,131.392 18.34,129.529ZM281.114,129.087C280.195,125.413 281.402,122.221 282.001,118.778L282.001,118.81C282.841,122.624 281.714,125.826 281.114,129.087Z" style="fill:rgb(190,151,107);"/>
            <g transform="matrix(1,0,0,1,0,2.68167)">
                <path d="M-0,96.822C10.453,87.438 21.574,80.596 33.159,75.518C34.608,63.898 39.623,55.985 49.072,50.221C57.366,45.162 72.294,42.528 88.265,42.203C101.47,41.934 112.257,42.284 126.588,43.571C134.014,44.238 140.676,45.691 150,45.691C159.324,45.691 165.986,44.238 173.412,43.571C187.743,42.284 198.53,41.934 211.735,42.203C227.706,42.528 242.634,45.162 250.928,50.221C260.377,55.985 265.392,63.898 266.841,75.518C278.426,80.596 289.547,87.438 300,96.822L300,145.892C298.842,145.892 297.703,145.441 296.85,144.592C284.605,132.417 271.619,122.352 257.007,116.76C255.744,118.085 254.337,119.322 252.772,120.455C241.605,128.539 231.527,129.786 211.784,129.832C199.948,129.86 191.958,127.44 185.082,124.248C185.019,124.219 184.957,124.188 184.895,124.156C174.831,118.899 167.154,111.75 162.576,101.165C159.092,93.111 156.2,88.353 150,88.353C143.8,88.353 140.908,93.111 137.424,101.165C132.846,111.75 125.169,118.899 115.105,124.156C115.043,124.188 114.981,124.219 114.918,124.248C108.042,127.44 100.052,129.86 88.216,129.832C80.945,129.815 74.985,129.636 69.798,129.011C69.667,128.806 69.534,128.602 69.4,128.398L68.856,128.892C60.43,127.767 54.031,125.38 47.228,120.455C45.663,119.322 44.256,118.085 42.993,116.76C28.381,122.352 15.395,132.417 3.15,144.592C2.297,145.441 1.158,145.892 -0,145.892L-0,96.822Z" style="fill:rgb(43,22,22);fill-opacity:0.1;"/>
            </g>
            <g>
                <path d="M0,102.917C12.569,90.862 26.199,82.839 40.491,77.332L46.177,110.928C29.045,116.262 14.03,127.474 0,141.424L0,102.917ZM300,102.917L300,141.424C285.97,127.474 270.955,116.262 253.823,110.928L259.509,77.332C273.801,82.839 287.431,90.862 300,102.917Z" style="fill:rgb(43,22,22);"/>
                <path d="M24.362,115.579C23.847,115.906 23.164,115.752 22.838,115.237C22.511,114.722 22.665,114.038 23.18,113.712C23.853,113.286 24.528,112.868 25.207,112.459C25.729,112.143 26.409,112.311 26.724,112.834C27.039,113.356 26.871,114.036 26.349,114.351C25.684,114.752 25.022,115.162 24.362,115.579ZM36.667,108.951C36.109,109.197 35.457,108.943 35.211,108.385C34.965,107.827 35.219,107.174 35.777,106.928C36.51,106.605 37.245,106.294 37.981,105.997C38.547,105.769 39.191,106.042 39.42,106.608C39.648,107.173 39.375,107.818 38.809,108.046C38.094,108.335 37.38,108.637 36.667,108.951ZM30.406,86.391C29.862,86.667 29.196,86.45 28.92,85.907C28.643,85.363 28.86,84.697 29.404,84.421C30.108,84.062 30.815,83.713 31.522,83.373C32.072,83.108 32.733,83.34 32.997,83.89C33.261,84.44 33.029,85.101 32.48,85.365C31.787,85.698 31.095,86.04 30.406,86.391ZM12.968,123.756C12.492,124.138 11.796,124.061 11.414,123.585C11.033,123.109 11.109,122.413 11.585,122.032C12.203,121.536 12.826,121.045 13.453,120.56C13.935,120.186 14.629,120.275 15.003,120.757C15.376,121.239 15.288,121.934 14.806,122.307C14.189,122.785 13.576,123.268 12.968,123.756ZM43.169,106.452C42.589,106.641 41.965,106.324 41.775,105.744C41.586,105.164 41.903,104.54 42.483,104.351C42.864,104.226 43.245,104.105 43.627,103.989C44.21,103.81 44.829,104.139 45.007,104.722C45.186,105.305 44.857,105.923 44.274,106.102C43.906,106.215 43.537,106.331 43.169,106.452ZM36.693,83.463C36.131,83.7 35.483,83.436 35.246,82.874C35.009,82.312 35.273,81.664 35.835,81.427C36.566,81.119 37.297,80.821 38.029,80.536C38.597,80.314 39.239,80.595 39.46,81.164C39.682,81.732 39.401,82.373 38.833,82.595C38.119,82.873 37.406,83.163 36.693,83.463ZM1.927,106.217C1.472,106.624 0.773,106.585 0.366,106.13C-0.041,105.676 -0.002,104.977 0.453,104.57C1.035,104.049 1.624,103.53 2.22,103.013C2.681,102.613 3.38,102.663 3.779,103.123C4.179,103.584 4.129,104.283 3.669,104.682C3.081,105.192 2.5,105.704 1.927,106.217ZM24.315,89.734C23.79,90.043 23.112,89.867 22.802,89.342C22.493,88.816 22.669,88.138 23.194,87.829C23.874,87.429 24.556,87.036 25.24,86.651C25.771,86.352 26.446,86.541 26.745,87.073C27.044,87.604 26.855,88.278 26.324,88.577C25.652,88.955 24.982,89.341 24.315,89.734ZM12.724,97.425C12.233,97.787 11.541,97.683 11.178,97.193C10.816,96.702 10.92,96.009 11.41,95.647C12.041,95.181 12.677,94.719 13.317,94.262C13.813,93.907 14.504,94.023 14.858,94.519C15.213,95.015 15.098,95.706 14.601,96.06C13.971,96.511 13.345,96.965 12.724,97.425ZM18.555,119.508C18.06,119.864 17.368,119.751 17.012,119.256C16.656,118.761 16.769,118.069 17.264,117.713C17.909,117.25 18.557,116.792 19.209,116.342C19.711,115.995 20.4,116.121 20.747,116.623C21.093,117.124 20.968,117.813 20.466,118.16C19.825,118.603 19.188,119.052 18.555,119.508ZM2.436,133.052C1.998,133.476 1.298,133.465 0.874,133.026C0.449,132.588 0.461,131.888 0.899,131.464C1.466,130.916 2.039,130.369 2.619,129.825C3.064,129.407 3.764,129.429 4.181,129.874C4.599,130.318 4.577,131.018 4.132,131.436C3.56,131.973 2.995,132.512 2.436,133.052ZM30.398,112.032C29.862,112.322 29.19,112.123 28.9,111.586C28.61,111.05 28.809,110.379 29.346,110.088C30.048,109.708 30.753,109.338 31.459,108.978C32.003,108.702 32.669,108.919 32.945,109.462C33.222,110.006 33.005,110.672 32.462,110.948C31.772,111.299 31.084,111.661 30.398,112.032ZM7.595,128.281C7.138,128.685 6.439,128.642 6.035,128.185C5.631,127.727 5.675,127.029 6.132,126.625C6.724,126.102 7.322,125.582 7.925,125.065C8.388,124.669 9.086,124.723 9.483,125.186C9.88,125.649 9.826,126.347 9.362,126.744C8.768,127.253 8.179,127.766 7.595,128.281ZM7.223,101.695C6.75,102.08 6.053,102.009 5.668,101.536C5.283,101.063 5.354,100.366 5.827,99.981C6.434,99.486 7.047,98.995 7.665,98.507C8.144,98.129 8.84,98.212 9.217,98.69C9.595,99.169 9.513,99.865 9.034,100.242C8.425,100.723 7.821,101.207 7.223,101.695ZM18.422,93.427C17.914,93.765 17.227,93.626 16.89,93.118C16.552,92.61 16.69,91.924 17.198,91.586C17.853,91.151 18.512,90.721 19.174,90.298C19.688,89.969 20.372,90.12 20.7,90.634C21.029,91.147 20.878,91.831 20.365,92.16C19.714,92.576 19.066,92.999 18.422,93.427ZM275.638,115.579C274.978,115.162 274.316,114.752 273.651,114.351C273.129,114.036 272.961,113.356 273.276,112.834C273.591,112.311 274.271,112.143 274.793,112.459C275.472,112.868 276.147,113.286 276.82,113.712C277.335,114.038 277.489,114.722 277.162,115.237C276.836,115.752 276.153,115.906 275.638,115.579ZM263.333,108.951C262.62,108.637 261.906,108.335 261.191,108.046C260.625,107.818 260.352,107.173 260.58,106.608C260.809,106.042 261.453,105.769 262.019,105.997C262.755,106.294 263.49,106.605 264.223,106.928C264.781,107.174 265.035,107.827 264.789,108.385C264.543,108.943 263.891,109.197 263.333,108.951ZM269.594,86.391C268.905,86.04 268.213,85.698 267.52,85.365C266.971,85.101 266.739,84.44 267.003,83.89C267.267,83.34 267.928,83.108 268.478,83.373C269.185,83.713 269.892,84.062 270.596,84.421C271.14,84.697 271.357,85.363 271.08,85.907C270.804,86.45 270.138,86.667 269.594,86.391ZM287.032,123.756C286.424,123.268 285.811,122.785 285.194,122.307C284.712,121.934 284.624,121.239 284.997,120.757C285.371,120.275 286.065,120.186 286.547,120.56C287.174,121.045 287.797,121.536 288.415,122.032C288.891,122.413 288.967,123.109 288.586,123.585C288.204,124.061 287.508,124.138 287.032,123.756ZM256.831,106.452C256.463,106.331 256.094,106.215 255.726,106.102C255.143,105.923 254.814,105.305 254.993,104.722C255.171,104.139 255.79,103.81 256.373,103.989C256.755,104.105 257.136,104.226 257.517,104.351C258.097,104.54 258.414,105.164 258.225,105.744C258.035,106.324 257.411,106.641 256.831,106.452ZM263.307,83.463C262.594,83.163 261.881,82.873 261.167,82.595C260.599,82.373 260.318,81.732 260.54,81.164C260.761,80.595 261.403,80.314 261.971,80.536C262.703,80.821 263.434,81.119 264.165,81.427C264.727,81.664 264.991,82.312 264.754,82.874C264.517,83.436 263.869,83.7 263.307,83.463ZM298.073,106.217C297.5,105.704 296.919,105.192 296.331,104.682C295.871,104.283 295.821,103.584 296.221,103.123C296.62,102.663 297.319,102.613 297.78,103.013C298.376,103.53 298.965,104.049 299.547,104.57C300.002,104.977 300.041,105.676 299.634,106.13C299.227,106.585 298.528,106.624 298.073,106.217ZM275.685,89.734C275.018,89.341 274.348,88.955 273.676,88.577C273.145,88.278 272.956,87.604 273.255,87.073C273.554,86.541 274.229,86.352 274.76,86.651C275.444,87.036 276.126,87.429 276.806,87.829C277.331,88.138 277.507,88.816 277.198,89.342C276.888,89.867 276.21,90.043 275.685,89.734ZM287.276,97.425C286.655,96.965 286.029,96.511 285.399,96.06C284.902,95.706 284.787,95.015 285.142,94.519C285.496,94.023 286.187,93.907 286.683,94.262C287.323,94.719 287.959,95.181 288.59,95.647C289.08,96.009 289.184,96.702 288.822,97.193C288.459,97.683 287.767,97.787 287.276,97.425ZM281.445,119.508C280.812,119.052 280.175,118.603 279.534,118.16C279.032,117.813 278.907,117.124 279.253,116.623C279.6,116.121 280.289,115.995 280.791,116.342C281.443,116.792 282.091,117.25 282.736,117.713C283.231,118.069 283.344,118.761 282.988,119.256C282.632,119.751 281.94,119.864 281.445,119.508ZM297.564,133.052C297.005,132.512 296.44,131.973 295.868,131.436C295.423,131.018 295.401,130.318 295.819,129.874C296.236,129.429 296.936,129.407 297.381,129.825C297.961,130.369 298.534,130.916 299.101,131.464C299.539,131.888 299.551,132.588 299.126,133.026C298.702,133.465 298.002,133.476 297.564,133.052ZM269.602,112.032C268.916,111.661 268.228,111.299 267.538,110.948C266.995,110.672 266.778,110.006 267.055,109.462C267.331,108.919 267.997,108.702 268.541,108.978C269.247,109.338 269.952,109.708 270.654,110.088C271.191,110.379 271.39,111.05 271.1,111.586C270.81,112.123 270.138,112.322 269.602,112.032ZM292.405,128.281C291.821,127.766 291.232,127.253 290.638,126.744C290.174,126.347 290.12,125.649 290.517,125.186C290.914,124.723 291.612,124.669 292.075,125.065C292.678,125.582 293.276,126.102 293.868,126.625C294.325,127.029 294.369,127.727 293.965,128.185C293.561,128.642 292.862,128.685 292.405,128.281ZM292.777,101.695C292.179,101.207 291.575,100.723 290.966,100.242C290.487,99.865 290.405,99.169 290.783,98.69C291.16,98.212 291.856,98.129 292.335,98.507C292.953,98.995 293.566,99.486 294.173,99.981C294.646,100.366 294.717,101.063 294.332,101.536C293.947,102.009 293.25,102.08 292.777,101.695ZM281.578,93.427C280.934,92.999 280.286,92.576 279.635,92.16C279.122,91.831 278.971,91.147 279.3,90.634C279.628,90.12 280.312,89.969 280.826,90.298C281.488,90.721 282.147,91.151 282.802,91.586C283.31,91.924 283.448,92.61 283.11,93.118C282.773,93.626 282.086,93.765 281.578,93.427Z" style="fill:rgb(26,0,0);"/>
                <path d="M0,137.909C13.875,124.113 28.715,112.994 45.612,107.592L46.177,110.928C29.045,116.262 14.03,127.474 0,141.424L0,137.909ZM300,137.909L300,141.424C285.97,127.474 270.955,116.262 253.823,110.928L254.388,107.592C271.285,112.994 286.125,124.113 300,137.909Z" style="fill:rgb(26,0,0);"/>
                <path d="M35.897,82.337C36.453,81.824 37.204,81.578 37.955,81.662C38.706,81.746 39.384,82.152 39.813,82.774C43.573,88.399 44.829,94.689 43.96,101.55C43.79,102.83 42.708,103.792 41.417,103.811C38.113,103.85 34.81,103.468 31.506,102.516C28.518,101.654 27.249,96.249 28.529,93.025C30.299,88.57 32.878,85.167 35.897,82.337ZM264.103,82.337C267.122,85.167 269.701,88.57 271.471,93.025C272.751,96.249 271.482,101.654 268.494,102.516C265.19,103.468 261.887,103.85 258.583,103.811C257.292,103.792 256.21,102.83 256.04,101.55C255.171,94.689 256.427,88.399 260.187,82.774C260.616,82.152 261.294,81.746 262.045,81.662C262.796,81.578 263.547,81.824 264.103,82.337Z" style="fill:rgb(181,181,181);"/>
                <path d="M150,83.885C142.135,83.885 137.743,89.175 133.324,99.391C129.171,108.99 122.163,115.428 113.036,120.195C106.649,123.161 99.222,125.39 88.226,125.364C69.766,125.321 60.29,124.394 49.848,116.836C39.072,109.034 37.113,95.524 37.185,82.722C37.263,68.909 41.481,60.086 51.399,54.036C59.212,49.27 73.312,46.977 88.356,46.67C101.392,46.405 112.041,46.751 126.188,48.021C133.74,48.699 140.517,50.159 150,50.159C159.483,50.159 166.26,48.699 173.812,48.021C187.959,46.751 198.608,46.405 211.644,46.67C226.688,46.977 240.788,49.27 248.601,54.036C258.519,60.086 262.737,68.909 262.815,82.722C262.887,95.524 260.928,109.034 250.152,116.836C239.71,124.394 230.234,125.321 211.774,125.364C200.778,125.39 193.351,123.161 186.964,120.195C177.837,115.428 170.829,108.99 166.676,99.391C162.257,89.175 157.865,83.885 150,83.885Z" style="fill:rgb(67,46,46);"/>
                <path d="M150,83.885C142.135,83.885 137.743,89.175 133.324,99.391C129.171,108.99 122.163,115.428 113.036,120.195C106.649,123.161 99.222,125.39 88.226,125.364C69.766,125.321 60.29,124.394 49.848,116.836C39.072,109.034 37.113,95.524 37.185,82.722C37.188,82.273 37.194,81.828 37.206,81.389C37.456,93.298 39.879,105.401 49.848,112.618C60.29,120.177 69.766,121.104 88.226,121.146C99.222,121.172 106.649,118.943 113.036,115.978C122.163,111.211 129.171,104.773 133.324,95.174C137.743,84.957 142.135,79.667 150,79.667C157.865,79.667 162.257,84.957 166.676,95.174C170.829,104.773 177.837,111.211 186.964,115.978C193.351,118.943 200.778,121.172 211.774,121.146C230.234,121.104 239.71,120.177 250.152,112.618C260.121,105.401 262.544,93.298 262.794,81.389C262.806,81.828 262.812,82.273 262.815,82.722C262.887,95.524 260.928,109.034 250.152,116.836C239.71,124.394 230.234,125.321 211.774,125.364C200.778,125.39 193.351,123.161 186.964,120.195C177.837,115.428 170.829,108.99 166.676,99.391C162.257,89.175 157.865,83.885 150,83.885Z" style="fill:rgb(48,25,25);"/>
                <path d="M37.199,81.688C37.446,81.643 37.7,81.634 37.955,81.662C38.706,81.746 39.384,82.152 39.813,82.774C43.573,88.399 44.829,94.689 43.96,101.55C43.79,102.83 42.708,103.792 41.417,103.811C41.004,103.815 40.592,103.814 40.18,103.805C37.743,97.31 37.145,89.905 37.185,82.722C37.187,82.374 37.192,82.029 37.199,81.688ZM262.801,81.688C262.808,82.029 262.813,82.374 262.815,82.722C262.855,89.905 262.257,97.31 259.82,103.805C259.408,103.814 258.996,103.815 258.583,103.811C257.292,103.792 256.21,102.83 256.04,101.55C255.171,94.689 256.427,88.399 260.187,82.774C260.616,82.152 261.294,81.746 262.045,81.662C262.3,81.634 262.554,81.643 262.801,81.688Z" style="fill:rgb(201,201,201);"/>
                <path d="M45.921,84.54C45.67,77.07 47.56,71.368 49.712,67.119C55.179,56.32 65.325,55.136 76.693,53.267C98.513,49.68 111.852,50.191 119.386,61.123C122.38,65.467 123.728,71.141 123.51,77.601C123.652,81.638 123.131,86.035 121.971,90.647C119.304,101.245 110.328,109.63 100.882,112.252C90.303,115.189 78.877,116.855 67.803,115.044C57.139,113.299 50.21,107.691 47.541,97.677C46.227,92.748 45.789,88.386 45.921,84.54ZM254.079,84.54C254.211,88.386 253.773,92.748 252.459,97.677C249.79,107.691 242.861,113.299 232.197,115.044C221.123,116.855 209.697,115.189 199.118,112.252C189.672,109.63 180.696,101.245 178.029,90.647C176.869,86.035 176.348,81.638 176.49,77.601C176.272,71.141 177.62,65.467 180.614,61.123C188.148,50.191 201.487,49.68 223.307,53.267C234.675,55.136 244.821,56.32 250.288,67.119C252.44,71.368 254.33,77.07 254.079,84.54Z" style="fill:rgb(140,85,80);"/>
                <path d="M67.803,112.397C57.139,110.653 50.21,105.044 47.541,95.03C44.113,82.17 46.648,73.172 49.712,67.119C55.179,56.32 65.325,55.136 76.693,53.267C98.513,49.68 111.852,50.191 119.386,61.123C123.903,67.677 124.674,77.259 121.971,88.001C119.304,98.599 110.328,106.984 100.882,109.606C90.303,112.543 78.877,114.209 67.803,112.397ZM232.197,112.397C221.123,114.209 209.697,112.543 199.118,109.606C189.672,106.984 180.696,98.599 178.029,88.001C175.326,77.259 176.097,67.677 180.614,61.123C188.148,50.191 201.487,49.68 223.307,53.267C234.675,55.136 244.821,56.32 250.288,67.119C253.352,73.172 255.887,82.17 252.459,95.03C249.79,105.044 242.861,110.653 232.197,112.397Z" style="fill:rgb(153,103,98);"/>
                <g transform="matrix(0.866628,0,0,0.87302,11.7967,9.15206)">
                    <path d="M67.803,112.397C57.139,110.653 50.21,105.044 47.541,95.03C44.113,82.17 46.648,73.172 49.712,67.119C55.179,56.32 65.325,55.136 76.693,53.267C98.513,49.68 111.852,50.191 119.386,61.123C123.903,67.677 124.674,77.259 121.971,88.001C119.304,98.599 110.328,106.984 100.882,109.606C90.303,112.543 78.877,114.209 67.803,112.397ZM251.142,112.397C240.068,114.209 228.642,112.543 218.062,109.606C208.617,106.984 199.641,98.599 196.974,88.001C194.271,77.259 195.042,67.677 199.558,61.123C207.093,50.191 220.432,49.68 242.252,53.267C253.62,55.136 263.766,56.32 269.233,67.119C272.297,73.172 274.832,82.17 271.404,95.03C268.735,105.044 261.806,110.653 251.142,112.397Z" style="fill:rgb(146,145,124);"/>
                </g>
                <g transform="matrix(0.866628,0,0,0.87302,11.7967,9.15206)">
                    <path d="M97.196,51.282C105.48,51.392 111.756,53.209 116.396,57.605L56.879,108.445C52.299,105.491 49.148,101.059 47.541,95.03C47.443,94.663 47.35,94.298 47.262,93.937L97.196,51.282ZM122.373,67.527C122.978,69.605 123.344,71.846 123.476,74.217L77.901,113.148C75.109,113.17 72.318,113.016 69.544,112.653L122.373,67.527ZM242.947,53.38C250.38,54.592 257.255,55.6 262.594,59.322L208.936,105.156C204.299,101.824 200.39,97.123 198.164,91.634L242.947,53.38ZM269.768,68.22C270.442,69.666 271.072,71.264 271.596,73.027C271.632,73.419 271.661,73.816 271.683,74.217L227.657,111.824C225.259,111.389 222.884,110.862 220.545,110.267L269.768,68.22Z" style="fill:rgb(185,184,171);fill-opacity:0.4;"/>
                </g>
                <g transform="matrix(0.866628,0,0,0.87302,11.7967,9.15206)">
                    <path d="M46.3,88.923C44.972,79.255 47.158,72.164 49.712,67.119C55.179,56.32 65.325,55.136 76.693,53.267C98.513,49.68 111.852,50.191 119.386,61.123C123.054,66.446 124.252,73.766 123.125,82.082C122.533,78.375 121.294,75.068 119.386,72.301C111.852,61.369 98.513,60.858 76.693,64.445C65.325,66.314 55.179,67.498 49.712,78.297C48.267,81.152 46.939,84.662 46.3,88.923ZM272.645,88.923C272.006,84.662 270.678,81.152 269.233,78.297C263.766,67.498 253.62,66.314 242.252,64.445C220.432,60.858 207.093,61.369 199.558,72.301C197.651,75.068 196.412,78.375 195.82,82.082C194.693,73.766 195.89,66.446 199.558,61.123C207.093,50.191 220.432,49.68 242.252,53.267C253.62,55.136 263.766,56.32 269.233,67.119C271.787,72.164 273.973,79.255 272.645,88.923Z" style="fill:rgb(115,95,95);"/>
                </g>
                <g transform="matrix(0.866628,0,0,0.87302,11.7967,9.15206)">
                    <path d="M67.803,112.397C57.139,110.653 50.21,105.044 47.541,95.03C44.113,82.17 46.648,73.172 49.712,67.119C55.179,56.32 65.325,55.136 76.693,53.267C98.513,49.68 111.852,50.191 119.386,61.123C123.903,67.677 124.674,77.259 121.971,88.001C119.304,98.599 110.328,106.984 100.882,109.606C90.303,112.543 78.877,114.209 67.803,112.397ZM68.427,108.632C78.947,110.353 89.797,108.721 99.847,105.931C108.089,103.644 115.915,96.322 118.242,87.076C120.633,77.574 120.209,69.075 116.214,63.278C113.069,58.715 108.672,56.397 102.825,55.523C96.134,54.524 87.742,55.318 77.321,57.031C67.239,58.689 57.995,59.256 53.146,68.832C50.378,74.301 48.16,82.436 51.257,94.054C53.51,102.506 59.427,107.16 68.427,108.632ZM251.142,112.397C240.068,114.209 228.642,112.543 218.062,109.606C208.617,106.984 199.641,98.599 196.974,88.001C194.271,77.259 195.042,67.677 199.558,61.123C207.093,50.191 220.432,49.68 242.252,53.267C253.62,55.136 263.766,56.32 269.233,67.119C272.297,73.172 274.832,82.17 271.404,95.03C268.735,105.044 261.806,110.653 251.142,112.397ZM250.517,108.632C259.518,107.16 265.435,102.506 267.688,94.054C270.785,82.436 268.567,74.301 265.798,68.832C260.95,59.256 251.705,58.689 241.624,57.031C231.203,55.318 222.81,54.524 216.12,55.523C210.273,56.397 205.876,58.715 202.731,63.278C198.736,69.075 198.312,77.574 200.703,87.076C203.03,96.322 210.856,103.644 219.098,105.931C229.148,108.721 239.997,110.353 250.517,108.632Z" style="fill:rgb(242,182,152);"/>
                </g>
                <path d="M121.33,75.518C119.946,75.518 118.823,74.395 118.823,73.012C118.823,71.628 119.946,70.505 121.33,70.505L178.779,70.505C180.162,70.505 181.285,71.628 181.285,73.012C181.285,74.395 180.162,75.518 178.779,75.518L121.33,75.518ZM119.168,65.106C117.811,65.373 116.492,64.488 116.224,63.131C115.957,61.774 116.842,60.455 118.199,60.187C135.833,56.714 160.726,56.297 180.476,60.187C181.833,60.455 182.718,61.774 182.451,63.131C182.183,64.488 180.864,65.373 179.507,65.106C160.372,61.336 136.253,61.74 119.168,65.106Z" style="fill:rgb(153,103,98);"/>
            </g>
        </g>
    </g>
</svg>
